<?xml version="1.0" encoding="utf-8"?><!-- Generator: Iparigrafika Gear Generator by Abel Vincze http://geargenerator.com/ --><svg version="1.2" class="svggear" xmlns="http://www.w3.org/2000/svg" xmlns:xlink="http://www.w3.org/1999/xlink" x="0px" y="0px" width="1250px" height="1250px" viewBox="-625 -625 1250 1250" overflow="scroll" xml:space="preserve"><polygon id="gearpoly1" data-id="1" class="gear" fill="#ddd" stroke="#444" stroke-width="1" stroke-miterlimit="10" points="570.3867,-31.3945 570.5571,-33.044 572.3219,-34.2437 574.0993,-35.471 575.889,-36.7262 577.6907,-38.0094 579.5041,-39.3209 581.3289,-40.6609 583.1647,-42.0297 585.0112,-43.4275 586.8681,-44.8545 588.7351,-46.311 590.6118,-47.7972 592.498,-49.3132 594.3932,-50.8594 596.2971,-52.4359 598.2094,-54.0429 600.1297,-55.6806 602.0578,-57.3493 603.9931,-59.0491 605.9355,-60.7802 607.8845,-62.5428 609.8398,-64.3372 611.801,-66.1634 613.7678,-68.0217 615.7398,-69.9122 617.7166,-71.8351 619.6979,-73.7907 619.4102,-76.1672 617.0197,-77.5937 614.6412,-78.9895 612.2752,-80.3551 609.9219,-81.6905 607.5817,-82.9962 605.2548,-84.2723 602.9416,-85.5191 600.6423,-86.7369 598.3573,-87.9259 596.0869,-89.0865 593.8313,-90.2189 591.5909,-91.3233 589.3659,-92.4001 587.1566,-93.4495 584.9632,-94.4719 582.7862,-95.4675 580.6256,-96.4365 578.4819,-97.3794 576.3552,-98.2964 574.2459,-99.1877 572.1542,-100.0538 570.0803,-100.8948 568.0245,-101.7112 565.987,-102.5031 563.9681,-103.271 561.9681,-104.0151 561.4091,-105.5763 561.4091,-105.5763 561.3628,-107.2339 562.9559,-108.6538 564.5579,-110.1026 566.1685,-111.5806 567.7873,-113.088 569.414,-114.6249 571.0482,-116.1917 572.6896,-117.7884 574.3379,-119.4153 575.9927,-121.0725 577.6536,-122.7602 579.3203,-124.4786 580.9924,-126.2279 582.6696,-128.0082 584.3514,-129.8197 586.0376,-131.6625 587.7278,-133.5369 589.4215,-135.443 591.1184,-137.3808 592.8182,-139.3507 594.5205,-141.3526 596.2249,-143.3868 597.9309,-145.4534 599.6383,-147.5525 601.3467,-149.6843 603.0556,-151.8488 604.7646,-154.0462 604.1693,-156.3649 601.613,-157.4671 599.0727,-158.5405 596.5487,-159.5856 594.0412,-160.6024 591.5506,-161.5915 589.077,-162.5529 586.6209,-163.4871 584.1823,-164.3944 581.7617,-165.275 579.3592,-166.1293 576.9751,-166.9576 574.6097,-167.7601 572.2631,-168.5373 569.9357,-169.2894 567.6277,-170.0167 565.3393,-170.7196 563.0708,-171.3983 560.8223,-172.0533 558.5942,-172.6849 556.3866,-173.2933 554.1997,-173.8789 552.0337,-174.4421 549.889,-174.9831 547.7656,-175.5023 545.6637,-176.0001 543.5837,-176.4768 542.8257,-177.9517 542.8257,-177.9517 542.5634,-179.5891 543.9576,-181.2047 545.3567,-182.8502 546.7606,-184.5258 548.1688,-186.2316 549.581,-187.9677 550.9968,-189.7344 552.4157,-191.5317 553.8376,-193.3598 555.2619,-195.2188 556.6883,-197.1089 558.1164,-199.0301 559.5459,-200.9827 560.9763,-202.9667 562.4073,-204.9822 563.8386,-207.0294 565.2696,-209.1084 566.7001,-211.2192 568.1295,-213.362 569.5577,-215.5368 570.9841,-217.7438 572.4083,-219.9831 573.8301,-222.2547 575.2489,-224.5587 576.6643,-226.8952 578.0761,-229.2642 579.4837,-231.6659 578.5908,-233.8871 575.9125,-234.6462 573.2538,-235.3789 570.615,-236.0855 567.9963,-236.7664 565.3979,-237.4219 562.82,-238.0523 560.2629,-238.6579 557.7268,-239.2391 555.2119,-239.7962 552.7185,-240.3296 550.2467,-240.8396 547.7967,-241.3265 545.3688,-241.7908 542.9632,-242.2326 540.58,-242.6525 538.2194,-243.0506 535.8817,-243.4275 533.567,-243.7834 531.2754,-244.1187 529.0073,-244.4338 526.7627,-244.7289 524.5417,-245.0045 522.3447,-245.261 520.1717,-245.4986 518.0229,-245.7178 515.8984,-245.919 514.9544,-247.2823 514.9544,-247.2823 514.4806,-248.8714 515.652,-250.6552 516.8244,-252.4693 517.9976,-254.3137 519.1711,-256.1887 520.3445,-258.0944 521.5176,-260.0307 522.6898,-261.9978 523.8609,-263.9959 525.0304,-266.0249 526.1979,-268.085 527.363,-270.1762 528.5254,-272.2986 529.6846,-274.4524 530.8403,-276.6374 531.9921,-278.8539 533.1395,-281.1019 534.2822,-283.3814 535.4198,-285.6924 536.5518,-288.0351 537.678,-290.4094 538.7978,-292.8154 539.9108,-295.2531 541.0167,-297.7226 542.1151,-300.2239 543.2056,-302.7569 544.2877,-305.3218 543.1125,-307.4074 540.358,-307.8104 537.6265,-308.1898 534.918,-308.546 532.2328,-308.8792 529.571,-309.1899 526.9329,-309.4784 524.3187,-309.7451 521.7284,-309.9903 519.1623,-310.2144 516.6206,-310.4178 514.1033,-310.6008 511.6108,-310.7638 509.1431,-310.9071 506.7003,-311.0312 504.2827,-311.1364 501.8904,-311.223 499.5235,-311.2915 497.1821,-311.3423 494.8664,-311.3756 492.5765,-311.3919 490.3126,-311.3915 488.0747,-311.3749 485.863,-311.3424 483.6776,-311.2944 481.5185,-311.2312 479.386,-311.1533 478.2721,-312.3818 478.2721,-312.3818 477.5949,-313.8955 478.5234,-315.8169 479.449,-317.7685 480.3714,-319.7503 481.2901,-321.7624 482.2048,-323.8049 483.1151,-325.8778 484.0206,-327.9811 484.9208,-330.1149 485.8154,-332.2792 486.7041,-334.4741 487.5863,-336.6995 488.4617,-338.9555 489.3299,-341.2421 490.1905,-343.5593 491.0431,-345.9072 491.8873,-348.2857 492.7227,-350.6948 493.5489,-353.1346 494.3654,-355.605 495.172,-358.1059 495.9682,-360.6375 496.7535,-363.1997 497.5277,-365.7924 498.2902,-368.4156 499.0407,-371.0693 499.7788,-373.7535 498.3414,-375.6679 495.5579,-375.7079 492.8002,-375.7276 490.0684,-375.7271 487.3626,-375.707 484.6831,-375.6677 482.0299,-375.6093 479.4032,-375.5325 476.8031,-375.4375 474.2297,-375.3248 471.6832,-375.1946 469.1636,-375.0475 466.6711,-374.8837 464.2058,-374.7038 461.7677,-374.5079 459.3571,-374.2967 456.9739,-374.0703 454.6183,-373.8293 452.2903,-373.574 449.9901,-373.3048 447.7177,-373.022 445.4732,-372.7262 443.2566,-372.4176 441.068,-372.0967 438.9076,-371.7638 436.7752,-371.4194 434.6711,-371.0638 433.4064,-372.1364 433.4064,-372.1364 432.5375,-373.5487 433.2072,-375.5749 433.8702,-377.6306 434.526,-379.7158 435.1742,-381.8307 435.8145,-383.9751 436.4464,-386.1491 437.0696,-388.3526 437.6836,-390.5856 438.2881,-392.8482 438.8826,-395.1402 439.4668,-397.4618 440.0402,-399.8127 440.6026,-402.1931 441.1533,-404.6028 441.6922,-407.0419 442.2187,-409.5102 442.7325,-412.0078 443.2332,-414.5345 443.7203,-417.0903 444.1936,-419.6752 444.6525,-422.2891 445.0967,-424.9318 445.5258,-427.6034 445.9394,-430.3037 446.3371,-433.0327 446.7185,-435.7902 445.0435,-437.5006 442.2786,-437.177 439.5419,-436.8365 436.8335,-436.4795 434.1536,-436.1064 431.5021,-435.7176 428.8792,-435.3135 426.285,-434.8945 423.7195,-434.4609 421.1829,-434.0132 418.6751,-433.5518 416.1963,-433.0771 413.7465,-432.5894 411.3258,-432.0891 408.9341,-431.5768 406.5717,-431.0526 404.2384,-430.5172 401.9344,-429.9707 399.6597,-429.4137 397.4143,-428.8466 395.1982,-428.2697 393.0115,-427.6834 390.8542,-427.0881 388.7263,-426.4843 386.6277,-425.8723 384.5586,-425.2525 382.5189,-424.6253 381.125,-425.5236 381.125,-425.5236 380.0792,-426.8104 380.4787,-428.9067 380.8677,-431.0313 381.2457,-433.1843 381.6123,-435.3657 381.9672,-437.5753 382.31,-439.8132 382.6402,-442.0792 382.9575,-444.3733 383.2615,-446.6954 383.5518,-449.0454 383.8279,-451.4233 384.0896,-453.8291 384.3364,-456.2625 384.5679,-458.7235 384.7838,-461.212 384.9837,-463.7279 385.1671,-466.2712 385.3336,-468.8417 385.483,-471.4392 385.6148,-474.0637 385.7286,-476.7151 385.8241,-479.3932 385.9008,-482.098 385.9584,-484.8292 385.9965,-487.5867 386.0147,-490.3704 384.1308,-491.8475 381.4318,-491.1658 378.763,-490.471 376.1243,-489.7636 373.516,-489.0439 370.938,-488.3123 368.3903,-487.5693 365.873,-486.8152 363.386,-486.0505 360.9295,-485.2756 358.5034,-484.4908 356.1078,-483.6965 353.7426,-482.8933 351.4079,-482.0813 349.1036,-481.2612 346.8298,-480.4332 344.5864,-479.5977 342.3734,-478.7552 340.1908,-477.9061 338.0387,-477.0507 335.9169,-476.1895 333.8254,-475.3228 331.7642,-474.451 329.7333,-473.5746 327.7326,-472.6939 325.7621,-471.8093 323.8216,-470.9213 322.3225,-471.6299 322.3225,-471.6299 321.1176,-472.7693 321.2401,-474.8997 321.3484,-477.057 321.4422,-479.2409 321.521,-481.4515 321.5844,-483.6885 321.6321,-485.952 321.6638,-488.2417 321.6789,-490.5576 321.6772,-492.8995 321.6582,-495.2673 321.6216,-497.661 321.5671,-500.0802 321.4942,-502.525 321.4025,-504.9952 321.2917,-507.4906 321.1614,-510.0111 321.0113,-512.5566 320.8409,-515.1268 320.65,-517.7216 320.4381,-520.3409 320.2049,-522.9844 319.9499,-525.6521 319.6729,-528.3437 319.3736,-531.0591 319.0514,-533.798 318.7061,-536.5603 316.6455,-537.7789 314.0586,-536.7507 311.5033,-535.7135 308.9796,-534.6677 306.4875,-533.6136 304.027,-532.5518 301.5981,-531.4826 299.2007,-530.4065 296.8349,-529.3237 294.5005,-528.2347 292.1976,-527.14 289.9262,-526.0398 287.6861,-524.9347 285.4773,-523.825 283.2998,-522.7111 281.1535,-521.5934 279.0383,-520.4722 276.9542,-519.3481 274.9012,-518.2214 272.8791,-517.0924 270.8878,-515.9616 268.9274,-514.8293 266.9976,-513.696 265.0985,-512.5619 263.2299,-511.4276 261.3916,-510.2934 259.5837,-509.1597 258.0049,-509.6666 258.0049,-509.6666 256.6616,-510.6389 256.505,-512.7672 256.3308,-514.9201 256.1387,-517.0976 255.9283,-519.2995 255.6992,-521.5257 255.4511,-523.776 255.1835,-526.0503 254.8963,-528.3483 254.5889,-530.67 254.261,-533.0151 253.9123,-535.3834 253.5425,-537.7749 253.151,-540.1893 252.7377,-542.6264 252.3022,-545.086 251.844,-547.5679 251.3629,-550.072 250.8586,-552.5979 250.3306,-555.1457 249.7786,-557.7149 249.2023,-560.3054 248.6013,-562.9169 247.9754,-565.5494 247.3242,-568.2024 246.6472,-570.8758 245.9443,-573.5694 243.7424,-574.5086 241.3118,-573.1516 238.9137,-571.7897 236.5481,-570.4234 234.2149,-569.0531 231.914,-567.6793 229.6455,-566.3022 227.4091,-564.9223 225.2048,-563.54 223.0326,-562.1556 220.8923,-560.7697 218.7838,-559.3825 216.7071,-557.9944 214.6621,-556.6059 212.6486,-555.2173 210.6666,-553.829 208.7158,-552.4413 206.7963,-551.0548 204.9079,-549.6697 203.0505,-548.2865 201.2239,-546.9054 199.428,-545.5269 197.6627,-544.1514 195.9278,-542.7792 194.2232,-541.4107 192.5487,-540.0462 190.9043,-538.6862 189.2728,-538.9827 189.2728,-538.9827 187.8141,-539.7714 187.381,-541.861 186.9273,-543.9728 186.4526,-546.1066 185.9566,-548.2622 185.4389,-550.4394 184.8992,-552.6381 184.3371,-554.858 183.7523,-557.0989 183.1445,-559.3605 182.5134,-561.6428 181.8585,-563.9454 181.1797,-566.2681 180.4765,-568.6107 179.7486,-570.973 178.9957,-573.3547 178.2175,-575.7556 177.4137,-578.1755 176.5839,-580.614 175.7279,-583.071 174.8453,-585.5462 173.9358,-588.0393 172.9991,-590.5501 172.0349,-593.0783 171.043,-595.6236 170.0229,-598.1858 168.9744,-600.7646 166.6687,-601.4084 164.436,-599.7457 162.2362,-598.0824 160.0692,-596.4191 157.9348,-594.756 155.833,-593.0936 153.7635,-591.4321 151.7264,-589.7721 149.7214,-588.1139 147.7485,-586.4579 145.8074,-584.8044 143.898,-583.1539 142.0203,-581.5066 140.174,-579.863 138.359,-578.2235 136.5751,-576.5884 134.8222,-574.958 133.1001,-573.3328 131.4086,-571.7131 129.7476,-570.0992 128.1169,-568.4915 126.5163,-566.8904 124.9456,-565.2963 123.4047,-563.7094 121.8933,-562.1301 120.4113,-560.5587 118.9584,-558.9957 117.3022,-559.0767 117.3022,-559.0767 115.753,-559.6682 115.0509,-561.6834 114.3254,-563.7179 113.5763,-565.7715 112.8031,-567.8439 112.0057,-569.935 111.1836,-572.0444 110.3366,-574.1719 109.4643,-576.3173 108.5665,-578.4803 107.6428,-580.6606 106.6931,-582.858 105.7168,-585.0723 104.7139,-587.3031 103.6839,-589.5502 102.6266,-591.8132 101.5417,-594.092 100.4289,-596.3862 99.2879,-598.6956 98.1185,-601.0198 96.9204,-603.3586 95.6932,-605.7117 94.4368,-608.0788 93.1509,-610.4595 91.8352,-612.8536 90.4894,-615.2607 89.1133,-617.6806 86.7433,-618.0179 84.7467,-616.078 82.7828,-614.1418 80.8515,-612.2099 78.9524,-610.2824 77.0856,-608.3598 75.2507,-606.4425 73.4477,-604.5308 71.6763,-602.6251 69.9363,-600.7257 68.2277,-598.833 66.5501,-596.9474 64.9034,-595.0691 63.2875,-593.1986 61.702,-591.3362 60.1468,-589.4822 58.6217,-587.637 57.1264,-585.8009 55.6609,-583.9742 54.2247,-582.1574 52.8178,-580.3506 51.4399,-578.5543 50.0907,-576.7688 48.7701,-574.9943 47.4778,-573.2312 46.2135,-571.4799 44.9771,-569.7406 43.3245,-569.6047 43.3245,-569.6047 41.7114,-569.989 40.7522,-571.8953 39.7674,-573.8177 38.7566,-575.7559 37.7196,-577.7097 36.656,-579.6788 35.5656,-581.6628 34.4481,-583.6616 33.3033,-585.6748 32.1309,-587.7021 30.9305,-589.7432 29.702,-591.7979 28.4451,-593.8657 27.1596,-595.9465 25.8451,-598.0399 24.5015,-600.1456 23.1284,-602.2633 21.7257,-604.3927 20.293,-606.5333 18.8302,-608.6851 17.3371,-610.8475 15.8133,-613.0202 14.2587,-615.203 12.673,-617.3956 11.0561,-619.5974 9.4076,-621.8083 7.7274,-624.0279 5.3337,-624.0529 3.6074,-621.869 1.913,-619.6931 0.2503,-617.5256 -1.3809,-615.3667 -2.9808,-613.2169 -4.5497,-611.0765 -6.0878,-608.9458 -7.5953,-606.8252 -9.0724,-604.715 -10.5194,-602.6154 -11.9365,-600.5269 -13.3239,-598.4498 -14.6819,-596.3844 -16.0107,-594.331 -17.3106,-592.2898 -18.5819,-590.2613 -19.8246,-588.2458 -21.0393,-586.2435 -22.226,-584.2547 -23.385,-582.2797 -24.5167,-580.3189 -25.6212,-578.3726 -26.6989,-576.4409 -27.7501,-574.5243 -28.7749,-572.6229 -29.7737,-570.7371 -31.3945,-570.3867 -31.3945,-570.3867 -33.044,-570.5571 -34.2437,-572.3219 -35.471,-574.0993 -36.7262,-575.889 -38.0094,-577.6907 -39.3209,-579.5041 -40.6609,-581.3289 -42.0297,-583.1647 -43.4275,-585.0112 -44.8545,-586.8681 -46.311,-588.7351 -47.7972,-590.6118 -49.3132,-592.498 -50.8594,-594.3932 -52.4359,-596.2971 -54.0429,-598.2094 -55.6806,-600.1297 -57.3493,-602.0578 -59.0491,-603.9931 -60.7802,-605.9355 -62.5428,-607.8845 -64.3372,-609.8398 -66.1634,-611.801 -68.0217,-613.7678 -69.9122,-615.7398 -71.8351,-617.7166 -73.7907,-619.6979 -76.1672,-619.4102 -77.5937,-617.0197 -78.9895,-614.6412 -80.3551,-612.2752 -81.6905,-609.9219 -82.9962,-607.5817 -84.2723,-605.2548 -85.5191,-602.9416 -86.7369,-600.6423 -87.9259,-598.3573 -89.0865,-596.0869 -90.2189,-593.8313 -91.3233,-591.5909 -92.4001,-589.3659 -93.4495,-587.1566 -94.4719,-584.9632 -95.4675,-582.7862 -96.4365,-580.6256 -97.3794,-578.4819 -98.2964,-576.3552 -99.1877,-574.2459 -100.0538,-572.1542 -100.8948,-570.0803 -101.7112,-568.0245 -102.5031,-565.987 -103.271,-563.9681 -104.0151,-561.9681 -105.5763,-561.4091 -105.5763,-561.4091 -107.2339,-561.3628 -108.6538,-562.9559 -110.1026,-564.5579 -111.5806,-566.1685 -113.088,-567.7873 -114.6249,-569.414 -116.1917,-571.0482 -117.7884,-572.6896 -119.4153,-574.3379 -121.0725,-575.9927 -122.7602,-577.6536 -124.4786,-579.3203 -126.2279,-580.9924 -128.0082,-582.6696 -129.8197,-584.3514 -131.6625,-586.0376 -133.5369,-587.7278 -135.443,-589.4215 -137.3808,-591.1184 -139.3507,-592.8182 -141.3526,-594.5205 -143.3868,-596.2249 -145.4534,-597.9309 -147.5525,-599.6383 -149.6843,-601.3467 -151.8488,-603.0556 -154.0462,-604.7646 -156.3649,-604.1693 -157.4671,-601.613 -158.5405,-599.0727 -159.5856,-596.5487 -160.6024,-594.0412 -161.5915,-591.5506 -162.5529,-589.077 -163.4871,-586.6209 -164.3944,-584.1823 -165.275,-581.7617 -166.1293,-579.3592 -166.9576,-576.9751 -167.7601,-574.6097 -168.5373,-572.2631 -169.2894,-569.9357 -170.0167,-567.6277 -170.7196,-565.3393 -171.3983,-563.0708 -172.0533,-560.8223 -172.6849,-558.5942 -173.2933,-556.3866 -173.8789,-554.1997 -174.4421,-552.0337 -174.9831,-549.889 -175.5023,-547.7656 -176.0001,-545.6637 -176.4768,-543.5837 -177.9517,-542.8257 -177.9517,-542.8257 -179.5891,-542.5634 -181.2047,-543.9576 -182.8502,-545.3567 -184.5258,-546.7606 -186.2316,-548.1688 -187.9677,-549.581 -189.7344,-550.9968 -191.5317,-552.4157 -193.3598,-553.8376 -195.2188,-555.2619 -197.1089,-556.6883 -199.0301,-558.1164 -200.9827,-559.5459 -202.9667,-560.9763 -204.9822,-562.4073 -207.0294,-563.8386 -209.1084,-565.2696 -211.2192,-566.7001 -213.362,-568.1295 -215.5368,-569.5577 -217.7438,-570.9841 -219.9831,-572.4083 -222.2547,-573.8301 -224.5587,-575.2489 -226.8952,-576.6643 -229.2642,-578.0761 -231.6659,-579.4837 -233.8871,-578.5908 -234.6462,-575.9125 -235.3789,-573.2538 -236.0855,-570.615 -236.7664,-567.9963 -237.4219,-565.3979 -238.0523,-562.82 -238.6579,-560.2629 -239.2391,-557.7268 -239.7962,-555.2119 -240.3296,-552.7185 -240.8396,-550.2467 -241.3265,-547.7967 -241.7908,-545.3688 -242.2326,-542.9632 -242.6525,-540.58 -243.0506,-538.2194 -243.4275,-535.8817 -243.7834,-533.567 -244.1187,-531.2754 -244.4338,-529.0073 -244.7289,-526.7627 -245.0045,-524.5417 -245.261,-522.3447 -245.4986,-520.1717 -245.7178,-518.0229 -245.919,-515.8984 -247.2823,-514.9544 -247.2823,-514.9544 -248.8714,-514.4806 -250.6552,-515.652 -252.4693,-516.8244 -254.3137,-517.9976 -256.1887,-519.1711 -258.0944,-520.3445 -260.0307,-521.5176 -261.9978,-522.6898 -263.9959,-523.8609 -266.0249,-525.0304 -268.085,-526.1979 -270.1762,-527.363 -272.2986,-528.5254 -274.4524,-529.6846 -276.6374,-530.8403 -278.8539,-531.9921 -281.1019,-533.1395 -283.3814,-534.2822 -285.6924,-535.4198 -288.0351,-536.5518 -290.4094,-537.678 -292.8154,-538.7978 -295.2531,-539.9108 -297.7226,-541.0167 -300.2239,-542.1151 -302.7569,-543.2056 -305.3218,-544.2877 -307.4074,-543.1125 -307.8104,-540.358 -308.1898,-537.6265 -308.546,-534.918 -308.8792,-532.2328 -309.1899,-529.571 -309.4784,-526.9329 -309.7451,-524.3187 -309.9903,-521.7284 -310.2144,-519.1623 -310.4178,-516.6206 -310.6008,-514.1033 -310.7638,-511.6108 -310.9071,-509.1431 -311.0312,-506.7003 -311.1364,-504.2827 -311.223,-501.8904 -311.2915,-499.5235 -311.3423,-497.1821 -311.3756,-494.8664 -311.3919,-492.5765 -311.3915,-490.3126 -311.3749,-488.0747 -311.3424,-485.863 -311.2944,-483.6776 -311.2312,-481.5185 -311.1533,-479.386 -312.3818,-478.2721 -312.3818,-478.2721 -313.8955,-477.5949 -315.8169,-478.5234 -317.7685,-479.449 -319.7503,-480.3714 -321.7624,-481.2901 -323.8049,-482.2048 -325.8778,-483.1151 -327.9811,-484.0206 -330.1149,-484.9208 -332.2792,-485.8154 -334.4741,-486.7041 -336.6995,-487.5863 -338.9555,-488.4617 -341.2421,-489.3299 -343.5593,-490.1905 -345.9072,-491.0431 -348.2857,-491.8873 -350.6948,-492.7227 -353.1346,-493.5489 -355.605,-494.3654 -358.1059,-495.172 -360.6375,-495.9682 -363.1997,-496.7535 -365.7924,-497.5277 -368.4156,-498.2902 -371.0693,-499.0407 -373.7535,-499.7788 -375.6679,-498.3414 -375.7079,-495.5579 -375.7276,-492.8002 -375.7271,-490.0684 -375.707,-487.3626 -375.6677,-484.6831 -375.6093,-482.0299 -375.5325,-479.4032 -375.4375,-476.8031 -375.3248,-474.2297 -375.1946,-471.6832 -375.0475,-469.1636 -374.8837,-466.6711 -374.7038,-464.2058 -374.5079,-461.7677 -374.2967,-459.3571 -374.0703,-456.9739 -373.8293,-454.6183 -373.574,-452.2903 -373.3048,-449.9901 -373.022,-447.7177 -372.7262,-445.4732 -372.4176,-443.2566 -372.0967,-441.068 -371.7638,-438.9076 -371.4194,-436.7752 -371.0638,-434.6711 -372.1364,-433.4064 -372.1364,-433.4064 -373.5487,-432.5375 -375.5749,-433.2072 -377.6306,-433.8702 -379.7158,-434.526 -381.8307,-435.1742 -383.9751,-435.8145 -386.1491,-436.4464 -388.3526,-437.0696 -390.5856,-437.6836 -392.8482,-438.2881 -395.1402,-438.8826 -397.4618,-439.4668 -399.8127,-440.0402 -402.1931,-440.6026 -404.6028,-441.1533 -407.0419,-441.6922 -409.5102,-442.2187 -412.0078,-442.7325 -414.5345,-443.2332 -417.0903,-443.7203 -419.6752,-444.1936 -422.2891,-444.6525 -424.9318,-445.0967 -427.6034,-445.5258 -430.3037,-445.9394 -433.0327,-446.3371 -435.7902,-446.7185 -437.5006,-445.0435 -437.177,-442.2786 -436.8365,-439.5419 -436.4795,-436.8335 -436.1064,-434.1536 -435.7176,-431.5021 -435.3135,-428.8792 -434.8945,-426.285 -434.4609,-423.7195 -434.0132,-421.1829 -433.5518,-418.6751 -433.0771,-416.1963 -432.5894,-413.7465 -432.0891,-411.3258 -431.5768,-408.9341 -431.0526,-406.5717 -430.5172,-404.2384 -429.9707,-401.9344 -429.4137,-399.6597 -428.8466,-397.4143 -428.2697,-395.1982 -427.6834,-393.0115 -427.0881,-390.8542 -426.4843,-388.7263 -425.8723,-386.6277 -425.2525,-384.5586 -424.6253,-382.5189 -425.5236,-381.125 -425.5236,-381.125 -426.8104,-380.0792 -428.9067,-380.4787 -431.0313,-380.8677 -433.1843,-381.2457 -435.3657,-381.6123 -437.5753,-381.9672 -439.8132,-382.31 -442.0792,-382.6402 -444.3733,-382.9575 -446.6954,-383.2615 -449.0454,-383.5518 -451.4233,-383.8279 -453.8291,-384.0896 -456.2625,-384.3364 -458.7235,-384.5679 -461.212,-384.7838 -463.7279,-384.9837 -466.2712,-385.1671 -468.8417,-385.3336 -471.4392,-385.483 -474.0637,-385.6148 -476.7151,-385.7286 -479.3932,-385.8241 -482.098,-385.9008 -484.8292,-385.9584 -487.5867,-385.9965 -490.3704,-386.0147 -491.8475,-384.1308 -491.1658,-381.4318 -490.471,-378.763 -489.7636,-376.1243 -489.0439,-373.516 -488.3123,-370.938 -487.5693,-368.3903 -486.8152,-365.873 -486.0505,-363.386 -485.2756,-360.9295 -484.4908,-358.5034 -483.6965,-356.1078 -482.8933,-353.7426 -482.0813,-351.4079 -481.2612,-349.1036 -480.4332,-346.8298 -479.5977,-344.5864 -478.7552,-342.3734 -477.9061,-340.1908 -477.0507,-338.0387 -476.1895,-335.9169 -475.3228,-333.8254 -474.451,-331.7642 -473.5746,-329.7333 -472.6939,-327.7326 -471.8093,-325.7621 -470.9213,-323.8216 -471.6299,-322.3225 -471.6299,-322.3225 -472.7693,-321.1176 -474.8997,-321.2401 -477.057,-321.3484 -479.2409,-321.4422 -481.4515,-321.521 -483.6885,-321.5844 -485.952,-321.6321 -488.2417,-321.6638 -490.5576,-321.6789 -492.8995,-321.6772 -495.2673,-321.6582 -497.661,-321.6216 -500.0802,-321.5671 -502.525,-321.4942 -504.9952,-321.4025 -507.4906,-321.2917 -510.0111,-321.1614 -512.5566,-321.0113 -515.1268,-320.8409 -517.7216,-320.65 -520.3409,-320.4381 -522.9844,-320.2049 -525.6521,-319.9499 -528.3437,-319.6729 -531.0591,-319.3736 -533.798,-319.0514 -536.5603,-318.7061 -537.7789,-316.6455 -536.7507,-314.0586 -535.7135,-311.5033 -534.6677,-308.9796 -533.6136,-306.4875 -532.5518,-304.027 -531.4826,-301.5981 -530.4065,-299.2007 -529.3237,-296.8349 -528.2347,-294.5005 -527.14,-292.1976 -526.0398,-289.9262 -524.9347,-287.6861 -523.825,-285.4773 -522.7111,-283.2998 -521.5934,-281.1535 -520.4722,-279.0383 -519.3481,-276.9542 -518.2214,-274.9012 -517.0924,-272.8791 -515.9616,-270.8878 -514.8293,-268.9274 -513.696,-266.9976 -512.5619,-265.0985 -511.4276,-263.2299 -510.2934,-261.3916 -509.1597,-259.5837 -509.6666,-258.0049 -509.6666,-258.0049 -510.6389,-256.6616 -512.7672,-256.505 -514.9201,-256.3308 -517.0976,-256.1387 -519.2995,-255.9283 -521.5257,-255.6992 -523.776,-255.4511 -526.0503,-255.1835 -528.3483,-254.8963 -530.67,-254.5889 -533.0151,-254.261 -535.3834,-253.9123 -537.7749,-253.5425 -540.1893,-253.151 -542.6264,-252.7377 -545.086,-252.3022 -547.5679,-251.844 -550.072,-251.3629 -552.5979,-250.8586 -555.1457,-250.3306 -557.7149,-249.7786 -560.3054,-249.2023 -562.9169,-248.6013 -565.5494,-247.9754 -568.2024,-247.3242 -570.8758,-246.6472 -573.5694,-245.9443 -574.5086,-243.7424 -573.1516,-241.3118 -571.7897,-238.9137 -570.4234,-236.5481 -569.0531,-234.2149 -567.6793,-231.914 -566.3022,-229.6455 -564.9223,-227.4091 -563.54,-225.2048 -562.1556,-223.0326 -560.7697,-220.8923 -559.3825,-218.7838 -557.9944,-216.7071 -556.6059,-214.6621 -555.2173,-212.6486 -553.829,-210.6666 -552.4413,-208.7158 -551.0548,-206.7963 -549.6697,-204.9079 -548.2865,-203.0505 -546.9054,-201.2239 -545.5269,-199.428 -544.1514,-197.6627 -542.7792,-195.9278 -541.4107,-194.2232 -540.0462,-192.5487 -538.6862,-190.9043 -538.9827,-189.2728 -538.9827,-189.2728 -539.7714,-187.8141 -541.861,-187.381 -543.9728,-186.9273 -546.1066,-186.4526 -548.2622,-185.9566 -550.4394,-185.4389 -552.6381,-184.8992 -554.858,-184.3371 -557.0989,-183.7523 -559.3605,-183.1445 -561.6428,-182.5134 -563.9454,-181.8585 -566.2681,-181.1797 -568.6107,-180.4765 -570.973,-179.7486 -573.3547,-178.9957 -575.7556,-178.2175 -578.1755,-177.4137 -580.614,-176.5839 -583.071,-175.7279 -585.5462,-174.8453 -588.0393,-173.9358 -590.5501,-172.9991 -593.0783,-172.0349 -595.6236,-171.043 -598.1858,-170.0229 -600.7646,-168.9744 -601.4084,-166.6687 -599.7457,-164.436 -598.0824,-162.2362 -596.4191,-160.0692 -594.756,-157.9348 -593.0936,-155.833 -591.4321,-153.7635 -589.7721,-151.7264 -588.1139,-149.7214 -586.4579,-147.7485 -584.8044,-145.8074 -583.1539,-143.898 -581.5066,-142.0203 -579.863,-140.174 -578.2235,-138.359 -576.5884,-136.5751 -574.958,-134.8222 -573.3328,-133.1001 -571.7131,-131.4086 -570.0992,-129.7476 -568.4915,-128.1169 -566.8904,-126.5163 -565.2963,-124.9456 -563.7094,-123.4047 -562.1301,-121.8933 -560.5587,-120.4113 -558.9957,-118.9584 -559.0767,-117.3022 -559.0767,-117.3022 -559.6682,-115.753 -561.6834,-115.0509 -563.7179,-114.3254 -565.7715,-113.5763 -567.8439,-112.8031 -569.935,-112.0057 -572.0444,-111.1836 -574.1719,-110.3366 -576.3173,-109.4643 -578.4803,-108.5665 -580.6606,-107.6428 -582.858,-106.6931 -585.0723,-105.7168 -587.3031,-104.7139 -589.5502,-103.6839 -591.8132,-102.6266 -594.092,-101.5417 -596.3862,-100.4289 -598.6956,-99.2879 -601.0198,-98.1185 -603.3586,-96.9204 -605.7117,-95.6932 -608.0788,-94.4368 -610.4595,-93.1509 -612.8536,-91.8352 -615.2607,-90.4894 -617.6806,-89.1133 -618.0179,-86.7433 -616.078,-84.7467 -614.1418,-82.7828 -612.2099,-80.8515 -610.2824,-78.9524 -608.3598,-77.0856 -606.4425,-75.2507 -604.5308,-73.4477 -602.6251,-71.6763 -600.7257,-69.9363 -598.833,-68.2277 -596.9474,-66.5501 -595.0691,-64.9034 -593.1986,-63.2875 -591.3362,-61.702 -589.4822,-60.1468 -587.637,-58.6217 -585.8009,-57.1264 -583.9742,-55.6609 -582.1574,-54.2247 -580.3506,-52.8178 -578.5543,-51.4399 -576.7688,-50.0907 -574.9943,-48.7701 -573.2312,-47.4778 -571.4799,-46.2135 -569.7406,-44.9771 -569.6047,-43.3245 -569.6047,-43.3245 -569.989,-41.7114 -571.8953,-40.7522 -573.8177,-39.7674 -575.7559,-38.7566 -577.7097,-37.7196 -579.6788,-36.656 -581.6628,-35.5656 -583.6616,-34.4481 -585.6748,-33.3033 -587.7021,-32.1309 -589.7432,-30.9305 -591.7979,-29.702 -593.8657,-28.4451 -595.9465,-27.1596 -598.0399,-25.8451 -600.1456,-24.5015 -602.2633,-23.1284 -604.3927,-21.7257 -606.5333,-20.293 -608.6851,-18.8302 -610.8475,-17.3371 -613.0202,-15.8133 -615.203,-14.2587 -617.3956,-12.673 -619.5974,-11.0561 -621.8083,-9.4076 -624.0279,-7.7274 -624.0529,-5.3337 -621.869,-3.6074 -619.6931,-1.913 -617.5256,-0.2503 -615.3667,1.3809 -613.2169,2.9808 -611.0765,4.5497 -608.9458,6.0878 -606.8252,7.5953 -604.715,9.0724 -602.6154,10.5194 -600.5269,11.9365 -598.4498,13.3239 -596.3844,14.6819 -594.331,16.0107 -592.2898,17.3106 -590.2613,18.5819 -588.2458,19.8246 -586.2435,21.0393 -584.2547,22.226 -582.2797,23.385 -580.3189,24.5167 -578.3726,25.6212 -576.4409,26.6989 -574.5243,27.7501 -572.6229,28.7749 -570.7371,29.7737 -570.3867,31.3945 -570.3867,31.3945 -570.5571,33.044 -572.3219,34.2437 -574.0993,35.471 -575.889,36.7262 -577.6907,38.0094 -579.5041,39.3209 -581.3289,40.6609 -583.1647,42.0297 -585.0112,43.4275 -586.8681,44.8545 -588.7351,46.311 -590.6118,47.7972 -592.498,49.3132 -594.3932,50.8594 -596.2971,52.4359 -598.2094,54.0429 -600.1297,55.6806 -602.0578,57.3493 -603.9931,59.0491 -605.9355,60.7802 -607.8845,62.5428 -609.8398,64.3372 -611.801,66.1634 -613.7678,68.0217 -615.7398,69.9122 -617.7166,71.8351 -619.6979,73.7907 -619.4102,76.1672 -617.0197,77.5937 -614.6412,78.9895 -612.2752,80.3551 -609.9219,81.6905 -607.5817,82.9962 -605.2548,84.2723 -602.9416,85.5191 -600.6423,86.7369 -598.3573,87.9259 -596.0869,89.0865 -593.8313,90.2189 -591.5909,91.3233 -589.3659,92.4001 -587.1566,93.4495 -584.9632,94.4719 -582.7862,95.4675 -580.6256,96.4365 -578.4819,97.3794 -576.3552,98.2964 -574.2459,99.1877 -572.1542,100.0538 -570.0803,100.8948 -568.0245,101.7112 -565.987,102.5031 -563.9681,103.271 -561.9681,104.0151 -561.4091,105.5763 -561.4091,105.5763 -561.3628,107.2339 -562.9559,108.6538 -564.5579,110.1026 -566.1685,111.5806 -567.7873,113.088 -569.414,114.6249 -571.0482,116.1917 -572.6896,117.7884 -574.3379,119.4153 -575.9927,121.0725 -577.6536,122.7602 -579.3203,124.4786 -580.9924,126.2279 -582.6696,128.0082 -584.3514,129.8197 -586.0376,131.6625 -587.7278,133.5369 -589.4215,135.443 -591.1184,137.3808 -592.8182,139.3507 -594.5205,141.3526 -596.2249,143.3868 -597.9309,145.4534 -599.6383,147.5525 -601.3467,149.6843 -603.0556,151.8488 -604.7646,154.0462 -604.1693,156.3649 -601.613,157.4671 -599.0727,158.5405 -596.5487,159.5856 -594.0412,160.6024 -591.5506,161.5915 -589.077,162.5529 -586.6209,163.4871 -584.1823,164.3944 -581.7617,165.275 -579.3592,166.1293 -576.9751,166.9576 -574.6097,167.7601 -572.2631,168.5373 -569.9357,169.2894 -567.6277,170.0167 -565.3393,170.7196 -563.0708,171.3983 -560.8223,172.0533 -558.5942,172.6849 -556.3866,173.2933 -554.1997,173.8789 -552.0337,174.4421 -549.889,174.9831 -547.7656,175.5023 -545.6637,176.0001 -543.5837,176.4768 -542.8257,177.9517 -542.8257,177.9517 -542.5634,179.5891 -543.9576,181.2047 -545.3567,182.8502 -546.7606,184.5258 -548.1688,186.2316 -549.581,187.9677 -550.9968,189.7344 -552.4157,191.5317 -553.8376,193.3598 -555.2619,195.2188 -556.6883,197.1089 -558.1164,199.0301 -559.5459,200.9827 -560.9763,202.9667 -562.4073,204.9822 -563.8386,207.0294 -565.2696,209.1084 -566.7001,211.2192 -568.1295,213.362 -569.5577,215.5368 -570.9841,217.7438 -572.4083,219.9831 -573.8301,222.2547 -575.2489,224.5587 -576.6643,226.8952 -578.0761,229.2642 -579.4837,231.6659 -578.5908,233.8871 -575.9125,234.6462 -573.2538,235.3789 -570.615,236.0855 -567.9963,236.7664 -565.3979,237.4219 -562.82,238.0523 -560.2629,238.6579 -557.7268,239.2391 -555.2119,239.7962 -552.7185,240.3296 -550.2467,240.8396 -547.7967,241.3265 -545.3688,241.7908 -542.9632,242.2326 -540.58,242.6525 -538.2194,243.0506 -535.8817,243.4275 -533.567,243.7834 -531.2754,244.1187 -529.0073,244.4338 -526.7627,244.7289 -524.5417,245.0045 -522.3447,245.261 -520.1717,245.4986 -518.0229,245.7178 -515.8984,245.919 -514.9544,247.2823 -514.9544,247.2823 -514.4806,248.8714 -515.652,250.6552 -516.8244,252.4693 -517.9976,254.3137 -519.1711,256.1887 -520.3445,258.0944 -521.5176,260.0307 -522.6898,261.9978 -523.8609,263.9959 -525.0304,266.0249 -526.1979,268.085 -527.363,270.1762 -528.5254,272.2986 -529.6846,274.4524 -530.8403,276.6374 -531.9921,278.8539 -533.1395,281.1019 -534.2822,283.3814 -535.4198,285.6924 -536.5518,288.0351 -537.678,290.4094 -538.7978,292.8154 -539.9108,295.2531 -541.0167,297.7226 -542.1151,300.2239 -543.2056,302.7569 -544.2877,305.3218 -543.1125,307.4074 -540.358,307.8104 -537.6265,308.1898 -534.918,308.546 -532.2328,308.8792 -529.571,309.1899 -526.9329,309.4784 -524.3187,309.7451 -521.7284,309.9903 -519.1623,310.2144 -516.6206,310.4178 -514.1033,310.6008 -511.6108,310.7638 -509.1431,310.9071 -506.7003,311.0312 -504.2827,311.1364 -501.8904,311.223 -499.5235,311.2915 -497.1821,311.3423 -494.8664,311.3756 -492.5765,311.3919 -490.3126,311.3915 -488.0747,311.3749 -485.863,311.3424 -483.6776,311.2944 -481.5185,311.2312 -479.386,311.1533 -478.2721,312.3818 -478.2721,312.3818 -477.5949,313.8955 -478.5234,315.8169 -479.449,317.7685 -480.3714,319.7503 -481.2901,321.7624 -482.2048,323.8049 -483.1151,325.8778 -484.0206,327.9811 -484.9208,330.1149 -485.8154,332.2792 -486.7041,334.4741 -487.5863,336.6995 -488.4617,338.9555 -489.3299,341.2421 -490.1905,343.5593 -491.0431,345.9072 -491.8873,348.2857 -492.7227,350.6948 -493.5489,353.1346 -494.3654,355.605 -495.172,358.1059 -495.9682,360.6375 -496.7535,363.1997 -497.5277,365.7924 -498.2902,368.4156 -499.0407,371.0693 -499.7788,373.7535 -498.3414,375.6679 -495.5579,375.7079 -492.8002,375.7276 -490.0684,375.7271 -487.3626,375.707 -484.6831,375.6677 -482.0299,375.6093 -479.4032,375.5325 -476.8031,375.4375 -474.2297,375.3248 -471.6832,375.1946 -469.1636,375.0475 -466.6711,374.8837 -464.2058,374.7038 -461.7677,374.5079 -459.3571,374.2967 -456.9739,374.0703 -454.6183,373.8293 -452.2903,373.574 -449.9901,373.3048 -447.7177,373.022 -445.4732,372.7262 -443.2566,372.4176 -441.068,372.0967 -438.9076,371.7638 -436.7752,371.4194 -434.6711,371.0638 -433.4064,372.1364 -433.4064,372.1364 -432.5375,373.5487 -433.2072,375.5749 -433.8702,377.6306 -434.526,379.7158 -435.1742,381.8307 -435.8145,383.9751 -436.4464,386.1491 -437.0696,388.3526 -437.6836,390.5856 -438.2881,392.8482 -438.8826,395.1402 -439.4668,397.4618 -440.0402,399.8127 -440.6026,402.1931 -441.1533,404.6028 -441.6922,407.0419 -442.2187,409.5102 -442.7325,412.0078 -443.2332,414.5345 -443.7203,417.0903 -444.1936,419.6752 -444.6525,422.2891 -445.0967,424.9318 -445.5258,427.6034 -445.9394,430.3037 -446.3371,433.0327 -446.7185,435.7902 -445.0435,437.5006 -442.2786,437.177 -439.5419,436.8365 -436.8335,436.4795 -434.1536,436.1064 -431.5021,435.7176 -428.8792,435.3135 -426.285,434.8945 -423.7195,434.4609 -421.1829,434.0132 -418.6751,433.5518 -416.1963,433.0771 -413.7465,432.5894 -411.3258,432.0891 -408.9341,431.5768 -406.5717,431.0526 -404.2384,430.5172 -401.9344,429.9707 -399.6597,429.4137 -397.4143,428.8466 -395.1982,428.2697 -393.0115,427.6834 -390.8542,427.0881 -388.7263,426.4843 -386.6277,425.8723 -384.5586,425.2525 -382.5189,424.6253 -381.125,425.5236 -381.125,425.5236 -380.0792,426.8104 -380.4787,428.9067 -380.8677,431.0313 -381.2457,433.1843 -381.6123,435.3657 -381.9672,437.5753 -382.31,439.8132 -382.6402,442.0792 -382.9575,444.3733 -383.2615,446.6954 -383.5518,449.0454 -383.8279,451.4233 -384.0896,453.8291 -384.3364,456.2625 -384.5679,458.7235 -384.7838,461.212 -384.9837,463.7279 -385.1671,466.2712 -385.3336,468.8417 -385.483,471.4392 -385.6148,474.0637 -385.7286,476.7151 -385.8241,479.3932 -385.9008,482.098 -385.9584,484.8292 -385.9965,487.5867 -386.0147,490.3704 -384.1308,491.8475 -381.4318,491.1658 -378.763,490.471 -376.1243,489.7636 -373.516,489.0439 -370.938,488.3123 -368.3903,487.5693 -365.873,486.8152 -363.386,486.0505 -360.9295,485.2756 -358.5034,484.4908 -356.1078,483.6965 -353.7426,482.8933 -351.4079,482.0813 -349.1036,481.2612 -346.8298,480.4332 -344.5864,479.5977 -342.3734,478.7552 -340.1908,477.9061 -338.0387,477.0507 -335.9169,476.1895 -333.8254,475.3228 -331.7642,474.451 -329.7333,473.5746 -327.7326,472.6939 -325.7621,471.8093 -323.8216,470.9213 -322.3225,471.6299 -322.3225,471.6299 -321.1176,472.7693 -321.2401,474.8997 -321.3484,477.057 -321.4422,479.2409 -321.521,481.4515 -321.5844,483.6885 -321.6321,485.952 -321.6638,488.2417 -321.6789,490.5576 -321.6772,492.8995 -321.6582,495.2673 -321.6216,497.661 -321.5671,500.0802 -321.4942,502.525 -321.4025,504.9952 -321.2917,507.4906 -321.1614,510.0111 -321.0113,512.5566 -320.8409,515.1268 -320.65,517.7216 -320.4381,520.3409 -320.2049,522.9844 -319.9499,525.6521 -319.6729,528.3437 -319.3736,531.0591 -319.0514,533.798 -318.7061,536.5603 -316.6455,537.7789 -314.0586,536.7507 -311.5033,535.7135 -308.9796,534.6677 -306.4875,533.6136 -304.027,532.5518 -301.5981,531.4826 -299.2007,530.4065 -296.8349,529.3237 -294.5005,528.2347 -292.1976,527.14 -289.9262,526.0398 -287.6861,524.9347 -285.4773,523.825 -283.2998,522.7111 -281.1535,521.5934 -279.0383,520.4722 -276.9542,519.3481 -274.9012,518.2214 -272.8791,517.0924 -270.8878,515.9616 -268.9274,514.8293 -266.9976,513.696 -265.0985,512.5619 -263.2299,511.4276 -261.3916,510.2934 -259.5837,509.1597 -258.0049,509.6666 -258.0049,509.6666 -256.6616,510.6389 -256.505,512.7672 -256.3308,514.9201 -256.1387,517.0976 -255.9283,519.2995 -255.6992,521.5257 -255.4511,523.776 -255.1835,526.0503 -254.8963,528.3483 -254.5889,530.67 -254.261,533.0151 -253.9123,535.3834 -253.5425,537.7749 -253.151,540.1893 -252.7377,542.6264 -252.3022,545.086 -251.844,547.5679 -251.3629,550.072 -250.8586,552.5979 -250.3306,555.1457 -249.7786,557.7149 -249.2023,560.3054 -248.6013,562.9169 -247.9754,565.5494 -247.3242,568.2024 -246.6472,570.8758 -245.9443,573.5694 -243.7424,574.5086 -241.3118,573.1516 -238.9137,571.7897 -236.5481,570.4234 -234.2149,569.0531 -231.914,567.6793 -229.6455,566.3022 -227.4091,564.9223 -225.2048,563.54 -223.0326,562.1556 -220.8923,560.7697 -218.7838,559.3825 -216.7071,557.9944 -214.6621,556.6059 -212.6486,555.2173 -210.6666,553.829 -208.7158,552.4413 -206.7963,551.0548 -204.9079,549.6697 -203.0505,548.2865 -201.2239,546.9054 -199.428,545.5269 -197.6627,544.1514 -195.9278,542.7792 -194.2232,541.4107 -192.5487,540.0462 -190.9043,538.6862 -189.2728,538.9827 -189.2728,538.9827 -187.8141,539.7714 -187.381,541.861 -186.9273,543.9728 -186.4526,546.1066 -185.9566,548.2622 -185.4389,550.4394 -184.8992,552.6381 -184.3371,554.858 -183.7523,557.0989 -183.1445,559.3605 -182.5134,561.6428 -181.8585,563.9454 -181.1797,566.2681 -180.4765,568.6107 -179.7486,570.973 -178.9957,573.3547 -178.2175,575.7556 -177.4137,578.1755 -176.5839,580.614 -175.7279,583.071 -174.8453,585.5462 -173.9358,588.0393 -172.9991,590.5501 -172.0349,593.0783 -171.043,595.6236 -170.0229,598.1858 -168.9744,600.7646 -166.6687,601.4084 -164.436,599.7457 -162.2362,598.0824 -160.0692,596.4191 -157.9348,594.756 -155.833,593.0936 -153.7635,591.4321 -151.7264,589.7721 -149.7214,588.1139 -147.7485,586.4579 -145.8074,584.8044 -143.898,583.1539 -142.0203,581.5066 -140.174,579.863 -138.359,578.2235 -136.5751,576.5884 -134.8222,574.958 -133.1001,573.3328 -131.4086,571.7131 -129.7476,570.0992 -128.1169,568.4915 -126.5163,566.8904 -124.9456,565.2963 -123.4047,563.7094 -121.8933,562.1301 -120.4113,560.5587 -118.9584,558.9957 -117.3022,559.0767 -117.3022,559.0767 -115.753,559.6682 -115.0509,561.6834 -114.3254,563.7179 -113.5763,565.7715 -112.8031,567.8439 -112.0057,569.935 -111.1836,572.0444 -110.3366,574.1719 -109.4643,576.3173 -108.5665,578.4803 -107.6428,580.6606 -106.6931,582.858 -105.7168,585.0723 -104.7139,587.3031 -103.6839,589.5502 -102.6266,591.8132 -101.5417,594.092 -100.4289,596.3862 -99.2879,598.6956 -98.1185,601.0198 -96.9204,603.3586 -95.6932,605.7117 -94.4368,608.0788 -93.1509,610.4595 -91.8352,612.8536 -90.4894,615.2607 -89.1133,617.6806 -86.7433,618.0179 -84.7467,616.078 -82.7828,614.1418 -80.8515,612.2099 -78.9524,610.2824 -77.0856,608.3598 -75.2507,606.4425 -73.4477,604.5308 -71.6763,602.6251 -69.9363,600.7257 -68.2277,598.833 -66.5501,596.9474 -64.9034,595.0691 -63.2875,593.1986 -61.702,591.3362 -60.1468,589.4822 -58.6217,587.637 -57.1264,585.8009 -55.6609,583.9742 -54.2247,582.1574 -52.8178,580.3506 -51.4399,578.5543 -50.0907,576.7688 -48.7701,574.9943 -47.4778,573.2312 -46.2135,571.4799 -44.9771,569.7406 -43.3245,569.6047 -43.3245,569.6047 -41.7114,569.989 -40.7522,571.8953 -39.7674,573.8177 -38.7566,575.7559 -37.7196,577.7097 -36.656,579.6788 -35.5656,581.6628 -34.4481,583.6616 -33.3033,585.6748 -32.1309,587.7021 -30.9305,589.7432 -29.702,591.7979 -28.4451,593.8657 -27.1596,595.9465 -25.8451,598.0399 -24.5015,600.1456 -23.1284,602.2633 -21.7257,604.3927 -20.293,606.5333 -18.8302,608.6851 -17.3371,610.8475 -15.8133,613.0202 -14.2587,615.203 -12.673,617.3956 -11.0561,619.5974 -9.4076,621.8083 -7.7274,624.0279 -5.3337,624.0529 -3.6074,621.869 -1.913,619.6931 -0.2503,617.5256 1.3809,615.3667 2.9808,613.2169 4.5497,611.0765 6.0878,608.9458 7.5953,606.8252 9.0724,604.715 10.5194,602.6154 11.9365,600.5269 13.3239,598.4498 14.6819,596.3844 16.0107,594.331 17.3106,592.2898 18.5819,590.2613 19.8246,588.2458 21.0393,586.2435 22.226,584.2547 23.385,582.2797 24.5167,580.3189 25.6212,578.3726 26.6989,576.4409 27.7501,574.5243 28.7749,572.6229 29.7737,570.7371 31.3945,570.3867 31.3945,570.3867 33.044,570.5571 34.2437,572.3219 35.471,574.0993 36.7262,575.889 38.0094,577.6907 39.3209,579.5041 40.6609,581.3289 42.0297,583.1647 43.4275,585.0112 44.8545,586.8681 46.311,588.7351 47.7972,590.6118 49.3132,592.498 50.8594,594.3932 52.4359,596.2971 54.0429,598.2094 55.6806,600.1297 57.3493,602.0578 59.0491,603.9931 60.7802,605.9355 62.5428,607.8845 64.3372,609.8398 66.1634,611.801 68.0217,613.7678 69.9122,615.7398 71.8351,617.7166 73.7907,619.6979 76.1672,619.4102 77.5937,617.0197 78.9895,614.6412 80.3551,612.2752 81.6905,609.9219 82.9962,607.5817 84.2723,605.2548 85.5191,602.9416 86.7369,600.6423 87.9259,598.3573 89.0865,596.0869 90.2189,593.8313 91.3233,591.5909 92.4001,589.3659 93.4495,587.1566 94.4719,584.9632 95.4675,582.7862 96.4365,580.6256 97.3794,578.4819 98.2964,576.3552 99.1877,574.2459 100.0538,572.1542 100.8948,570.0803 101.7112,568.0245 102.5031,565.987 103.271,563.9681 104.0151,561.9681 105.5763,561.4091 105.5763,561.4091 107.2339,561.3628 108.6538,562.9559 110.1026,564.5579 111.5806,566.1685 113.088,567.7873 114.6249,569.414 116.1917,571.0482 117.7884,572.6896 119.4153,574.3379 121.0725,575.9927 122.7602,577.6536 124.4786,579.3203 126.2279,580.9924 128.0082,582.6696 129.8197,584.3514 131.6625,586.0376 133.5369,587.7278 135.443,589.4215 137.3808,591.1184 139.3507,592.8182 141.3526,594.5205 143.3868,596.2249 145.4534,597.9309 147.5525,599.6383 149.6843,601.3467 151.8488,603.0556 154.0462,604.7646 156.3649,604.1693 157.4671,601.613 158.5405,599.0727 159.5856,596.5487 160.6024,594.0412 161.5915,591.5506 162.5529,589.077 163.4871,586.6209 164.3944,584.1823 165.275,581.7617 166.1293,579.3592 166.9576,576.9751 167.7601,574.6097 168.5373,572.2631 169.2894,569.9357 170.0167,567.6277 170.7196,565.3393 171.3983,563.0708 172.0533,560.8223 172.6849,558.5942 173.2933,556.3866 173.8789,554.1997 174.4421,552.0337 174.9831,549.889 175.5023,547.7656 176.0001,545.6637 176.4768,543.5837 177.9517,542.8257 177.9517,542.8257 179.5891,542.5634 181.2047,543.9576 182.8502,545.3567 184.5258,546.7606 186.2316,548.1688 187.9677,549.581 189.7344,550.9968 191.5317,552.4157 193.3598,553.8376 195.2188,555.2619 197.1089,556.6883 199.0301,558.1164 200.9827,559.5459 202.9667,560.9763 204.9822,562.4073 207.0294,563.8386 209.1084,565.2696 211.2192,566.7001 213.362,568.1295 215.5368,569.5577 217.7438,570.9841 219.9831,572.4083 222.2547,573.8301 224.5587,575.2489 226.8952,576.6643 229.2642,578.0761 231.6659,579.4837 233.8871,578.5908 234.6462,575.9125 235.3789,573.2538 236.0855,570.615 236.7664,567.9963 237.4219,565.3979 238.0523,562.82 238.6579,560.2629 239.2391,557.7268 239.7962,555.2119 240.3296,552.7185 240.8396,550.2467 241.3265,547.7967 241.7908,545.3688 242.2326,542.9632 242.6525,540.58 243.0506,538.2194 243.4275,535.8817 243.7834,533.567 244.1187,531.2754 244.4338,529.0073 244.7289,526.7627 245.0045,524.5417 245.261,522.3447 245.4986,520.1717 245.7178,518.0229 245.919,515.8984 247.2823,514.9544 247.2823,514.9544 248.8714,514.4806 250.6552,515.652 252.4693,516.8244 254.3137,517.9976 256.1887,519.1711 258.0944,520.3445 260.0307,521.5176 261.9978,522.6898 263.9959,523.8609 266.0249,525.0304 268.085,526.1979 270.1762,527.363 272.2986,528.5254 274.4524,529.6846 276.6374,530.8403 278.8539,531.9921 281.1019,533.1395 283.3814,534.2822 285.6924,535.4198 288.0351,536.5518 290.4094,537.678 292.8154,538.7978 295.2531,539.9108 297.7226,541.0167 300.2239,542.1151 302.7569,543.2056 305.3218,544.2877 307.4074,543.1125 307.8104,540.358 308.1898,537.6265 308.546,534.918 308.8792,532.2328 309.1899,529.571 309.4784,526.9329 309.7451,524.3187 309.9903,521.7284 310.2144,519.1623 310.4178,516.6206 310.6008,514.1033 310.7638,511.6108 310.9071,509.1431 311.0312,506.7003 311.1364,504.2827 311.223,501.8904 311.2915,499.5235 311.3423,497.1821 311.3756,494.8664 311.3919,492.5765 311.3915,490.3126 311.3749,488.0747 311.3424,485.863 311.2944,483.6776 311.2312,481.5185 311.1533,479.386 312.3818,478.2721 312.3818,478.2721 313.8955,477.5949 315.8169,478.5234 317.7685,479.449 319.7503,480.3714 321.7624,481.2901 323.8049,482.2048 325.8778,483.1151 327.9811,484.0206 330.1149,484.9208 332.2792,485.8154 334.4741,486.7041 336.6995,487.5863 338.9555,488.4617 341.2421,489.3299 343.5593,490.1905 345.9072,491.0431 348.2857,491.8873 350.6948,492.7227 353.1346,493.5489 355.605,494.3654 358.1059,495.172 360.6375,495.9682 363.1997,496.7535 365.7924,497.5277 368.4156,498.2902 371.0693,499.0407 373.7535,499.7788 375.6679,498.3414 375.7079,495.5579 375.7276,492.8002 375.7271,490.0684 375.707,487.3626 375.6677,484.6831 375.6093,482.0299 375.5325,479.4032 375.4375,476.8031 375.3248,474.2297 375.1946,471.6832 375.0475,469.1636 374.8837,466.6711 374.7038,464.2058 374.5079,461.7677 374.2967,459.3571 374.0703,456.9739 373.8293,454.6183 373.574,452.2903 373.3048,449.9901 373.022,447.7177 372.7262,445.4732 372.4176,443.2566 372.0967,441.068 371.7638,438.9076 371.4194,436.7752 371.0638,434.6711 372.1364,433.4064 372.1364,433.4064 373.5487,432.5375 375.5749,433.2072 377.6306,433.8702 379.7158,434.526 381.8307,435.1742 383.9751,435.8145 386.1491,436.4464 388.3526,437.0696 390.5856,437.6836 392.8482,438.2881 395.1402,438.8826 397.4618,439.4668 399.8127,440.0402 402.1931,440.6026 404.6028,441.1533 407.0419,441.6922 409.5102,442.2187 412.0078,442.7325 414.5345,443.2332 417.0903,443.7203 419.6752,444.1936 422.2891,444.6525 424.9318,445.0967 427.6034,445.5258 430.3037,445.9394 433.0327,446.3371 435.7902,446.7185 437.5006,445.0435 437.177,442.2786 436.8365,439.5419 436.4795,436.8335 436.1064,434.1536 435.7176,431.5021 435.3135,428.8792 434.8945,426.285 434.4609,423.7195 434.0132,421.1829 433.5518,418.6751 433.0771,416.1963 432.5894,413.7465 432.0891,411.3258 431.5768,408.9341 431.0526,406.5717 430.5172,404.2384 429.9707,401.9344 429.4137,399.6597 428.8466,397.4143 428.2697,395.1982 427.6834,393.0115 427.0881,390.8542 426.4843,388.7263 425.8723,386.6277 425.2525,384.5586 424.6253,382.5189 425.5236,381.125 425.5236,381.125 426.8104,380.0792 428.9067,380.4787 431.0313,380.8677 433.1843,381.2457 435.3657,381.6123 437.5753,381.9672 439.8132,382.31 442.0792,382.6402 444.3733,382.9575 446.6954,383.2615 449.0454,383.5518 451.4233,383.8279 453.8291,384.0896 456.2625,384.3364 458.7235,384.5679 461.212,384.7838 463.7279,384.9837 466.2712,385.1671 468.8417,385.3336 471.4392,385.483 474.0637,385.6148 476.7151,385.7286 479.3932,385.8241 482.098,385.9008 484.8292,385.9584 487.5867,385.9965 490.3704,386.0147 491.8475,384.1308 491.1658,381.4318 490.471,378.763 489.7636,376.1243 489.0439,373.516 488.3123,370.938 487.5693,368.3903 486.8152,365.873 486.0505,363.386 485.2756,360.9295 484.4908,358.5034 483.6965,356.1078 482.8933,353.7426 482.0813,351.4079 481.2612,349.1036 480.4332,346.8298 479.5977,344.5864 478.7552,342.3734 477.9061,340.1908 477.0507,338.0387 476.1895,335.9169 475.3228,333.8254 474.451,331.7642 473.5746,329.7333 472.6939,327.7326 471.8093,325.7621 470.9213,323.8216 471.6299,322.3225 471.6299,322.3225 472.7693,321.1176 474.8997,321.2401 477.057,321.3484 479.2409,321.4422 481.4515,321.521 483.6885,321.5844 485.952,321.6321 488.2417,321.6638 490.5576,321.6789 492.8995,321.6772 495.2673,321.6582 497.661,321.6216 500.0802,321.5671 502.525,321.4942 504.9952,321.4025 507.4906,321.2917 510.0111,321.1614 512.5566,321.0113 515.1268,320.8409 517.7216,320.65 520.3409,320.4381 522.9844,320.2049 525.6521,319.9499 528.3437,319.6729 531.0591,319.3736 533.798,319.0514 536.5603,318.7061 537.7789,316.6455 536.7507,314.0586 535.7135,311.5033 534.6677,308.9796 533.6136,306.4875 532.5518,304.027 531.4826,301.5981 530.4065,299.2007 529.3237,296.8349 528.2347,294.5005 527.14,292.1976 526.0398,289.9262 524.9347,287.6861 523.825,285.4773 522.7111,283.2998 521.5934,281.1535 520.4722,279.0383 519.3481,276.9542 518.2214,274.9012 517.0924,272.8791 515.9616,270.8878 514.8293,268.9274 513.696,266.9976 512.5619,265.0985 511.4276,263.2299 510.2934,261.3916 509.1597,259.5837 509.6666,258.0049 509.6666,258.0049 510.6389,256.6616 512.7672,256.505 514.9201,256.3308 517.0976,256.1387 519.2995,255.9283 521.5257,255.6992 523.776,255.4511 526.0503,255.1835 528.3483,254.8963 530.67,254.5889 533.0151,254.261 535.3834,253.9123 537.7749,253.5425 540.1893,253.151 542.6264,252.7377 545.086,252.3022 547.5679,251.844 550.072,251.3629 552.5979,250.8586 555.1457,250.3306 557.7149,249.7786 560.3054,249.2023 562.9169,248.6013 565.5494,247.9754 568.2024,247.3242 570.8758,246.6472 573.5694,245.9443 574.5086,243.7424 573.1516,241.3118 571.7897,238.9137 570.4234,236.5481 569.0531,234.2149 567.6793,231.914 566.3022,229.6455 564.9223,227.4091 563.54,225.2048 562.1556,223.0326 560.7697,220.8923 559.3825,218.7838 557.9944,216.7071 556.6059,214.6621 555.2173,212.6486 553.829,210.6666 552.4413,208.7158 551.0548,206.7963 549.6697,204.9079 548.2865,203.0505 546.9054,201.2239 545.5269,199.428 544.1514,197.6627 542.7792,195.9278 541.4107,194.2232 540.0462,192.5487 538.6862,190.9043 538.9827,189.2728 538.9827,189.2728 539.7714,187.8141 541.861,187.381 543.9728,186.9273 546.1066,186.4526 548.2622,185.9566 550.4394,185.4389 552.6381,184.8992 554.858,184.3371 557.0989,183.7523 559.3605,183.1445 561.6428,182.5134 563.9454,181.8585 566.2681,181.1797 568.6107,180.4765 570.973,179.7486 573.3547,178.9957 575.7556,178.2175 578.1755,177.4137 580.614,176.5839 583.071,175.7279 585.5462,174.8453 588.0393,173.9358 590.5501,172.9991 593.0783,172.0349 595.6236,171.043 598.1858,170.0229 600.7646,168.9744 601.4084,166.6687 599.7457,164.436 598.0824,162.2362 596.4191,160.0692 594.756,157.9348 593.0936,155.833 591.4321,153.7635 589.7721,151.7264 588.1139,149.7214 586.4579,147.7485 584.8044,145.8074 583.1539,143.898 581.5066,142.0203 579.863,140.174 578.2235,138.359 576.5884,136.5751 574.958,134.8222 573.3328,133.1001 571.7131,131.4086 570.0992,129.7476 568.4915,128.1169 566.8904,126.5163 565.2963,124.9456 563.7094,123.4047 562.1301,121.8933 560.5587,120.4113 558.9957,118.9584 559.0767,117.3022 559.0767,117.3022 559.6682,115.753 561.6834,115.0509 563.7179,114.3254 565.7715,113.5763 567.8439,112.8031 569.935,112.0057 572.0444,111.1836 574.1719,110.3366 576.3173,109.4643 578.4803,108.5665 580.6606,107.6428 582.858,106.6931 585.0723,105.7168 587.3031,104.7139 589.5502,103.6839 591.8132,102.6266 594.092,101.5417 596.3862,100.4289 598.6956,99.2879 601.0198,98.1185 603.3586,96.9204 605.7117,95.6932 608.0788,94.4368 610.4595,93.1509 612.8536,91.8352 615.2607,90.4894 617.6806,89.1133 618.0179,86.7433 616.078,84.7467 614.1418,82.7828 612.2099,80.8515 610.2824,78.9524 608.3598,77.0856 606.4425,75.2507 604.5308,73.4477 602.6251,71.6763 600.7257,69.9363 598.833,68.2277 596.9474,66.5501 595.0691,64.9034 593.1986,63.2875 591.3362,61.702 589.4822,60.1468 587.637,58.6217 585.8009,57.1264 583.9742,55.6609 582.1574,54.2247 580.3506,52.8178 578.5543,51.4399 576.7688,50.0907 574.9943,48.7701 573.2312,47.4778 571.4799,46.2135 569.7406,44.9771 569.6047,43.3245 569.6047,43.3245 569.989,41.7114 571.8953,40.7522 573.8177,39.7674 575.7559,38.7566 577.7097,37.7196 579.6788,36.656 581.6628,35.5656 583.6616,34.4481 585.6748,33.3033 587.7021,32.1309 589.7432,30.9305 591.7979,29.702 593.8657,28.4451 595.9465,27.1596 598.0399,25.8451 600.1456,24.5015 602.2633,23.1284 604.3927,21.7257 606.5333,20.293 608.6851,18.8302 610.8475,17.3371 613.0202,15.8133 615.203,14.2587 617.3956,12.673 619.5974,11.0561 621.8083,9.4076 624.0279,7.7274 624.0529,5.3337 621.869,3.6074 619.6931,1.913 617.5256,0.2503 615.3667,-1.3809 613.2169,-2.9808 611.0765,-4.5497 608.9458,-6.0878 606.8252,-7.5953 604.715,-9.0724 602.6154,-10.5194 600.5269,-11.9365 598.4498,-13.3239 596.3844,-14.6819 594.331,-16.0107 592.2898,-17.3106 590.2613,-18.5819 588.2458,-19.8246 586.2435,-21.0393 584.2547,-22.226 582.2797,-23.385 580.3189,-24.5167 578.3726,-25.6212 576.4409,-26.6989 574.5243,-27.7501 572.6229,-28.7749 570.7371,-29.7737 570.3867,-31.3945 "/><g class="guides"><polyline fill="none" stroke="#444" stroke-width="0.5" stroke-miterlimit="10" points="10,0 -10,0"/><polyline fill="none" stroke="#444" stroke-width="0.5" stroke-miterlimit="10" points="0,10 0,-10"/></g><circle fill="#c00" class="firstmarker" stroke="none" stroke-miterlimit="10" cx="595.6539" cy="-72.0865" r="9.8125"/><g class="geartext"><g class="text"><polyline fill="none" stroke="#444" stroke-width="0.5" stroke-linecap="square" stroke-miterlimit="1"  points="497.55 -213.07 496.36 -215.83 495.15 -218.58 493.93 -221.32 492.7 -224.05 "/><polyline fill="none" stroke="#444" stroke-width="0.5" stroke-linecap="square" stroke-miterlimit="1"  points="489.66 -216.15 500.64 -221 "/><polyline fill="none" stroke="#444" stroke-width="0.5" stroke-linecap="square" stroke-miterlimit="1"  points="503.06 -215.44 499.11 -217.02 495.15 -218.58 491.2 -220.09 487.24 -221.57 "/><polyline fill="none" stroke="#444" stroke-width="0.5" stroke-linecap="square" stroke-miterlimit="1"  points="492.03 -210.71 493.61 -214.63 495.15 -218.58 496.67 -222.54 498.16 -226.53 "/><polyline fill="none" stroke="#444" stroke-width="0.5" stroke-linecap="square" stroke-miterlimit="1"  points="505.42 -209.85 509.35 -208.18 492.69 -201.37 "/><polyline fill="none" stroke="#444" stroke-width="0.5" stroke-linecap="square" stroke-miterlimit="1"  points="493.8 -198.63 492.69 -201.37 491.56 -204.09 "/><polyline fill="none" stroke="#444" stroke-width="0.5" stroke-linecap="square" stroke-miterlimit="1"  points="522.06 -173.86 504.98 -168.17 508.3 -172.42 511.59 -176.7 514.85 -181.03 518.08 -185.39 501.13 -179.33 "/><polyline fill="none" stroke="#444" stroke-width="0.5" stroke-linecap="square" stroke-miterlimit="1"  points="521.8 -154.7 520.93 -157.59 520.05 -160.48 519.16 -163.36 518.24 -166.23 "/><polyline fill="none" stroke="#444" stroke-width="0.5" stroke-linecap="square" stroke-miterlimit="1"  points="516.05 -153 515.19 -155.85 514.32 -158.71 513.43 -161.56 512.53 -164.4 "/><polyline fill="none" stroke="#444" stroke-width="0.5" stroke-linecap="square" stroke-miterlimit="1"  points="520.85 -135.75 520.09 -138.64 519.31 -141.52 518.52 -144.39 517.71 -147.27 522.37 -145.47 527.03 -143.62 531.68 -141.73 514.29 -137.09 "/><polyline fill="none" stroke="#444" stroke-width="0.5" stroke-linecap="square" stroke-miterlimit="1"  points="525.95 -127.78 522.32 -129.97 519.41 -129.25 517.2 -125.66 517.89 -122.79 518.57 -119.92 522.15 -117.7 525.08 -118.36 527.33 -121.94 526.65 -124.87 525.95 -127.78 528.14 -131.42 531.06 -132.14 534.7 -129.91 535.41 -126.94 536.1 -123.97 533.85 -120.34 530.93 -119.68 527.33 -121.94 "/><polyline fill="none" stroke="#444" stroke-width="0.5" stroke-linecap="square" stroke-miterlimit="1"  points="532.22 -98.45 532.76 -95.5 533.28 -92.54 533.78 -89.59 537.23 -87.11 540.2 -87.59 542.66 -91.08 542.15 -94.08 541.62 -97.09 541.07 -100.09 523.37 -96.81 "/><polyline fill="none" stroke="#444" stroke-width="0.5" stroke-linecap="square" stroke-miterlimit="1"  points="526.3 -79.36 538.17 -81.15 "/><polyline fill="none" stroke="#444" stroke-width="0.5" stroke-linecap="square" stroke-miterlimit="1"  points="541.13 -81.59 544.1 -82.04 "/><polyline fill="none" stroke="#444" stroke-width="0.5" stroke-linecap="square" stroke-miterlimit="1"  points="531.63 -62.16 528.3 -64.74 530.91 -68.05 545.78 -69.96 "/><polyline fill="none" stroke="#444" stroke-width="0.5" stroke-linecap="square" stroke-miterlimit="1"  points="540.57 -63.21 540.21 -66.2 539.83 -69.19 539.44 -72.19 539.03 -75.17 "/><polyline fill="none" stroke="#444" stroke-width="0.5" stroke-linecap="square" stroke-miterlimit="1"  points="530.41 -44.2 530.16 -47.14 529.89 -50.08 529.6 -53.01 532.28 -56.26 538.25 -56.89 541.54 -54.21 541.84 -51.21 542.11 -48.2 542.37 -45.2 "/><polyline fill="none" stroke="#444" stroke-width="0.5" stroke-linecap="square" stroke-miterlimit="1"  points="536.85 -38.75 540.05 -35.97 543.24 -33.16 543.41 -30.15 540.58 -26.99 531.59 -26.54 "/><polyline fill="none" stroke="#444" stroke-width="0.5" stroke-linecap="square" stroke-miterlimit="1"  points="530.87 -38.32 548.82 -39.61 "/><polyline fill="none" stroke="#444" stroke-width="0.5" stroke-linecap="square" stroke-miterlimit="1"  points="532.22 -5.9 532.24 -2.95 532.25 0 532.24 2.95 535.22 5.93 547.22 6.07 550.24 3.05 550.25 0 550.24 -3.05 550.22 -6.1 "/><polyline fill="none" stroke="#444" stroke-width="0.5" stroke-linecap="square" stroke-miterlimit="1"  points="550.24 -3.05 532.24 -2.95 "/><polyline fill="none" stroke="#444" stroke-width="0.5" stroke-linecap="square" stroke-miterlimit="1"  points="543.72 24.13 543.84 21.11 543.95 18.1 544.04 15.08 544.12 12.07 "/><polyline fill="none" stroke="#444" stroke-width="0.5" stroke-linecap="square" stroke-miterlimit="1"  points="537.72 23.86 537.84 20.88 537.95 17.9 538.04 14.91 538.12 11.93 "/><polyline fill="none" stroke="#444" stroke-width="0.5" stroke-linecap="square" stroke-miterlimit="1"  points="546.41 30.32 549.23 33.53 531.26 32.43 "/><polyline fill="none" stroke="#444" stroke-width="0.5" stroke-linecap="square" stroke-miterlimit="1"  points="531.07 35.38 531.26 32.43 531.43 29.49 "/><polyline fill="none" stroke="#444" stroke-width="0.5" stroke-linecap="square" stroke-miterlimit="1"  points="529.6 53.01 529.89 50.08 530.16 47.14 530.41 44.2 530.65 41.26 536.63 41.73 539.38 44.95 539.12 47.94 538.85 50.92 541.54 54.21 544.53 54.51 547.81 51.77 548.09 48.73 548.35 45.7 545.6 42.42 "/><polyline fill="none" stroke="#444" stroke-width="0.5" stroke-linecap="square" stroke-miterlimit="1"  points="536.06 74.76 535.64 77.73 535.2 80.7 534.74 83.66 537.23 87.11 540.2 87.59 543.64 85.05 544.1 82.04 544.55 79.02 544.98 76 527.15 73.52 "/><polyline fill="none" stroke="#444" stroke-width="0.5" stroke-linecap="square" stroke-miterlimit="1"  points="534.04 104.92 534.61 101.96 535.17 98.99 535.71 96.03 536.24 93.06 "/><polyline fill="none" stroke="#444" stroke-width="0.5" stroke-linecap="square" stroke-miterlimit="1"  points="528.15 103.76 528.72 100.84 529.27 97.9 529.81 94.97 530.32 92.03 "/><polyline fill="none" stroke="#444" stroke-width="0.5" stroke-linecap="square" stroke-miterlimit="1"  points="524.41 121.27 525.08 118.36 525.72 115.45 526.36 112.53 526.97 109.61 530.27 113.37 533.54 117.16 536.78 121 519.22 117.04 "/><polyline fill="none" stroke="#444" stroke-width="0.5" stroke-linecap="square" stroke-miterlimit="1"  points="522.21 142.31 521.41 145.2 520.6 148.09 519.77 150.97 521.8 154.7 524.68 155.55 528.41 153.48 529.25 150.55 530.08 147.61 530.89 144.67 513.52 139.94 "/><polyline fill="none" stroke="#444" stroke-width="0.5" stroke-linecap="square" stroke-miterlimit="1"  points="508.59 156.94 514.32 158.71 519.16 163.36 523.96 168.06 517.31 169.1 510.68 170.07 504.98 168.17 "/><polyline fill="none" stroke="#444" stroke-width="0.5" stroke-linecap="square" stroke-miterlimit="1"  points="514.32 158.71 513.43 161.56 512.53 164.4 511.61 167.24 510.68 170.07 "/><polyline fill="none" stroke="#444" stroke-width="0.5" stroke-linecap="square" stroke-miterlimit="1"  points="510.36 189.04 511.4 186.21 512.43 183.37 513.44 180.53 514.43 177.68 "/><polyline fill="none" stroke="#444" stroke-width="0.5" stroke-linecap="square" stroke-miterlimit="1"  points="504.74 186.96 505.77 184.16 506.78 181.35 507.78 178.54 508.76 175.72 "/><polyline fill="none" stroke="#444" stroke-width="0.5" stroke-linecap="square" stroke-miterlimit="1"  points="511.04 195.76 512.74 199.68 511.63 202.52 510.5 205.35 506.57 207.04 503.8 205.91 502.15 201.99 498.24 203.64 495.47 202.5 493.8 198.63 494.89 195.89 495.97 193.15 499.83 191.47 "/><polyline fill="none" stroke="#444" stroke-width="0.5" stroke-linecap="square" stroke-miterlimit="1"  points="503.26 199.2 502.15 201.99 "/><polyline fill="none" stroke="#444" stroke-width="0.5" stroke-linecap="square" stroke-miterlimit="1"  points="502.15 225 503.39 222.21 504.61 219.42 505.82 216.62 507.01 213.81 501.48 211.48 500.3 214.25 499.11 217.02 497.9 219.79 493.93 221.32 488.46 218.86 486.92 214.94 488.1 212.24 489.27 209.53 493.19 207.98 "/></g></g><g class="guides gearguides" opacity="0.2"><circle class="pitch" fill="none" stroke="#f00" stroke-miterlimit="10" cx="0" cy="0" r="600"/><circle class="outer" fill="none" stroke="#ccc" stroke-miterlimit="10" stroke-dasharray="2,2" cx="0" cy="0" r="625"/><circle class="base" fill="none" stroke="#00f" stroke-miterlimit="10" stroke-dasharray="2,2" cx="0" cy="0" r="491.49"/></g></svg>