<?xml version="1.0" encoding="utf-8"?><!-- Generator: Iparigrafika Gear Generator by Abel Vincze http://geargenerator.com/ --><svg version="1.2" class="svggear" xmlns="http://www.w3.org/2000/svg" xmlns:xlink="http://www.w3.org/1999/xlink" x="0px" y="0px" width="650px" height="650px" viewBox="-325 -325 650 650" overflow="scroll" xml:space="preserve"><polygon id="gearpoly0" data-id="0" class="gear" fill="#ddd" stroke="#444" stroke-width="1" stroke-miterlimit="10" points="271.1937,-5.5264 271.5353,-8.3833 273.0534,-9.1708 274.6058,-10.005 276.1912,-10.8869 277.8088,-11.8178 279.4573,-12.7986 281.1356,-13.8305 282.8427,-14.9146 284.5773,-16.0519 286.3382,-17.2435 288.1242,-18.4903 289.9341,-19.7933 291.7666,-21.1535 293.6204,-22.5717 295.4942,-24.049 297.3866,-25.5861 299.2964,-27.184 301.2221,-28.8434 303.1624,-30.5651 305.1158,-32.3499 307.0809,-34.1986 309.0562,-36.1118 311.0404,-38.0903 313.0318,-40.1346 315.029,-42.2454 317.0305,-44.4234 319.0346,-46.669 318.4493,-50.5089 315.867,-52.0553 313.3076,-53.538 310.7721,-54.9579 308.262,-56.316 305.7786,-57.6134 303.3229,-58.8512 300.8962,-60.0303 298.4997,-61.1521 296.1346,-62.2175 293.8019,-63.2277 291.5028,-64.184 289.2383,-65.0874 287.0094,-65.9393 284.8172,-66.7408 282.6627,-67.4932 280.5468,-68.1977 278.4704,-68.8558 276.4345,-69.4685 274.4398,-70.0373 272.4873,-70.5636 270.5777,-71.0486 268.7118,-71.4937 266.8904,-71.9003 265.1142,-72.2697 263.3838,-72.6035 261.6999,-72.9029 260.5226,-75.5282 260.5226,-75.5282 260.1132,-78.3761 261.3758,-79.5298 262.6593,-80.7373 263.9625,-81.9995 265.284,-83.3173 266.6225,-84.6914 267.9766,-86.1225 269.3449,-87.6115 270.726,-89.159 272.1185,-90.7657 273.521,-92.4323 274.9319,-94.1593 276.3499,-95.9474 277.7735,-97.7972 279.2011,-99.7091 280.6312,-101.6836 282.0624,-103.7213 283.493,-105.8226 284.9216,-107.9878 286.3465,-110.2174 287.7661,-112.5117 289.179,-114.871 290.5834,-117.2955 291.9779,-119.7856 293.3607,-122.3415 294.7303,-124.9632 296.085,-127.651 294.5257,-131.2086 291.6312,-132.034 288.7752,-132.8037 285.9587,-133.519 283.1826,-134.1812 280.448,-134.7916 277.7556,-135.3516 275.1064,-135.8625 272.5013,-136.3258 269.941,-136.7428 267.4263,-137.1148 264.958,-137.4434 262.5369,-137.73 260.1635,-137.976 257.8385,-138.1828 255.5627,-138.3519 253.3365,-138.4848 251.1606,-138.583 249.0354,-138.6479 246.9615,-138.6811 244.9393,-138.6841 242.9693,-138.6583 241.0518,-138.6053 239.1872,-138.5266 237.3758,-138.4238 235.618,-138.2983 233.914,-138.1518 232.0974,-140.3829 232.0974,-140.3829 230.9648,-143.0277 231.8858,-144.4689 232.8131,-145.9675 233.7452,-147.524 234.6806,-149.1389 235.6178,-150.8126 236.5553,-152.5454 237.4916,-154.3378 238.4252,-156.19 239.3544,-158.1024 240.2777,-160.0752 241.1936,-162.1085 242.1005,-164.2027 242.9968,-166.3579 243.881,-168.5741 244.7513,-170.8516 245.6063,-173.1902 246.4443,-175.5902 247.2638,-178.0514 248.0631,-180.5738 248.8406,-183.1573 249.5947,-185.8019 250.3237,-188.5073 251.0262,-191.2735 251.7004,-194.1001 252.3447,-196.987 252.9576,-199.9339 250.5307,-202.9666 247.5212,-203.0147 244.5633,-203.019 241.6576,-202.981 238.8048,-202.9021 236.0053,-202.7839 233.2597,-202.628 230.5686,-202.4359 227.9323,-202.2091 225.3513,-201.9492 222.826,-201.6578 220.3568,-201.3364 217.944,-200.9865 215.5878,-200.6098 213.2886,-200.2078 211.0465,-199.7822 208.8618,-199.3344 206.7346,-198.866 204.665,-198.3787 202.6532,-197.874 200.6991,-197.3535 198.8029,-196.8187 196.9644,-196.2712 195.1837,-195.7126 193.4607,-195.1445 191.7953,-194.5684 190.1873,-193.9858 187.8551,-195.6707 187.8551,-195.6707 186.0766,-197.9323 186.5932,-199.5627 187.101,-201.2502 187.5985,-202.9949 188.0841,-204.7969 188.5562,-206.6561 189.0133,-208.5726 189.4538,-210.5462 189.8761,-212.577 190.2787,-214.6647 190.66,-216.8092 191.0184,-219.0103 191.3524,-221.2679 191.6603,-223.5816 191.9407,-225.9511 192.192,-228.3762 192.4125,-230.8565 192.6009,-233.3916 192.7554,-235.981 192.8746,-238.6243 192.9569,-241.321 193.0009,-244.0707 193.0049,-246.8726 192.9675,-249.7263 192.8871,-252.6312 192.7623,-255.5865 192.5916,-258.5915 189.4625,-260.8928 186.5431,-260.1604 183.6848,-259.399 180.888,-258.6102 178.1528,-257.7956 175.4793,-256.9569 172.8676,-256.0957 170.3179,-255.2136 167.8301,-254.3122 165.4044,-253.3932 163.0406,-252.4581 160.7387,-251.5085 158.4986,-250.5461 156.3202,-249.5724 154.2033,-248.5891 152.1478,-247.5976 150.1535,-246.5996 148.22,-245.5967 146.347,-244.5903 144.5344,-243.5821 142.7816,-242.5736 141.0884,-241.5662 139.4543,-240.5616 137.8789,-239.5612 136.3616,-238.5664 134.902,-237.5789 133.4996,-236.5999 130.8108,-237.6239 130.8108,-237.6239 128.5075,-239.3481 128.5845,-241.0566 128.6383,-242.8181 128.6673,-244.6321 128.6699,-246.4984 128.6447,-248.4164 128.5902,-250.3859 128.5049,-252.4063 128.3872,-254.4771 128.2358,-256.5979 128.049,-258.768 127.8255,-260.9869 127.5638,-263.254 127.2625,-265.5686 126.92,-267.9299 126.5351,-270.3374 126.1062,-272.7903 125.632,-275.2877 125.111,-277.8289 124.542,-280.413 123.9236,-283.0392 123.2544,-285.7065 122.533,-288.414 121.7583,-291.1608 120.9289,-293.9458 120.0434,-296.7681 119.1008,-299.6266 115.4827,-301.0396 112.8523,-299.5765 110.2885,-298.1013 107.7912,-296.6155 105.3599,-295.1208 102.9946,-293.6187 100.6948,-292.1109 98.4603,-290.5989 96.2906,-289.0844 94.1854,-287.5688 92.1441,-286.0538 90.1664,-284.5408 88.2518,-283.0314 86.3996,-281.5271 84.6094,-280.0294 82.8805,-278.5397 81.2124,-277.0595 79.6044,-275.5903 78.0557,-274.1335 76.5658,-272.6905 75.1338,-271.2627 73.759,-269.8514 72.4406,-268.4581 71.1778,-267.084 69.9697,-265.7305 68.8154,-264.3988 67.7142,-263.0902 64.852,-263.3833 64.852,-263.3833 62.1809,-264.4527 61.8131,-266.1229 61.4091,-267.8383 60.9676,-269.598 60.4871,-271.4013 59.9664,-273.2475 59.404,-275.1358 58.7987,-277.0653 58.149,-279.0351 57.4538,-281.0444 56.7118,-283.0922 55.9216,-285.1777 55.0821,-287.2998 54.1919,-289.4575 53.25,-291.6498 52.255,-293.8756 51.2059,-296.1339 50.1015,-298.4235 48.9406,-300.7432 47.7221,-303.092 46.4451,-305.4686 45.1083,-307.8718 43.7108,-310.3004 42.2515,-312.7531 40.7295,-315.2286 39.1438,-317.7255 37.4935,-320.2426 33.6329,-320.6711 31.4708,-318.577 29.3762,-316.4885 27.3485,-314.407 25.387,-312.3339 23.491,-310.2708 21.6599,-308.2192 19.8928,-306.1804 18.189,-304.1559 16.5478,-302.1471 14.9682,-300.1554 13.4495,-298.1821 11.9907,-296.2286 10.591,-294.2962 9.2495,-292.3861 7.9651,-290.4997 6.7369,-288.6383 5.5639,-286.803 4.4451,-284.995 3.3794,-283.2155 2.3657,-281.4657 1.403,-279.7467 0.4902,-278.0596 -0.374,-276.4055 -1.1906,-274.7854 -1.9608,-273.2004 -2.6859,-271.6514 -5.5264,-271.1937 -5.5264,-271.1937 -8.3833,-271.5353 -9.1708,-273.0534 -10.005,-274.6058 -10.8869,-276.1912 -11.8178,-277.8088 -12.7986,-279.4573 -13.8305,-281.1356 -14.9146,-282.8427 -16.0519,-284.5773 -17.2435,-286.3382 -18.4903,-288.1242 -19.7933,-289.9341 -21.1535,-291.7666 -22.5717,-293.6204 -24.049,-295.4942 -25.5861,-297.3866 -27.184,-299.2964 -28.8434,-301.2221 -30.5651,-303.1624 -32.3499,-305.1158 -34.1986,-307.0809 -36.1118,-309.0562 -38.0903,-311.0404 -40.1346,-313.0318 -42.2454,-315.029 -44.4234,-317.0305 -46.669,-319.0346 -50.5089,-318.4493 -52.0553,-315.867 -53.538,-313.3076 -54.9579,-310.7721 -56.316,-308.262 -57.6134,-305.7786 -58.8512,-303.3229 -60.0303,-300.8962 -61.1521,-298.4997 -62.2175,-296.1346 -63.2277,-293.8019 -64.184,-291.5028 -65.0874,-289.2383 -65.9393,-287.0094 -66.7408,-284.8172 -67.4932,-282.6627 -68.1977,-280.5468 -68.8558,-278.4704 -69.4685,-276.4345 -70.0373,-274.4398 -70.5636,-272.4873 -71.0486,-270.5777 -71.4937,-268.7118 -71.9003,-266.8904 -72.2697,-265.1142 -72.6035,-263.3838 -72.9029,-261.6999 -75.5282,-260.5226 -75.5282,-260.5226 -78.3761,-260.1132 -79.5298,-261.3758 -80.7373,-262.6593 -81.9995,-263.9625 -83.3173,-265.284 -84.6914,-266.6225 -86.1225,-267.9766 -87.6115,-269.3449 -89.159,-270.726 -90.7657,-272.1185 -92.4323,-273.521 -94.1593,-274.9319 -95.9474,-276.3499 -97.7972,-277.7735 -99.7091,-279.2011 -101.6836,-280.6312 -103.7213,-282.0624 -105.8226,-283.493 -107.9878,-284.9216 -110.2174,-286.3465 -112.5117,-287.7661 -114.871,-289.179 -117.2955,-290.5834 -119.7856,-291.9779 -122.3415,-293.3607 -124.9632,-294.7303 -127.651,-296.085 -131.2086,-294.5257 -132.034,-291.6312 -132.8037,-288.7752 -133.519,-285.9587 -134.1812,-283.1826 -134.7916,-280.448 -135.3516,-277.7556 -135.8625,-275.1064 -136.3258,-272.5013 -136.7428,-269.941 -137.1148,-267.4263 -137.4434,-264.958 -137.73,-262.5369 -137.976,-260.1635 -138.1828,-257.8385 -138.3519,-255.5627 -138.4848,-253.3365 -138.583,-251.1606 -138.6479,-249.0354 -138.6811,-246.9615 -138.6841,-244.9393 -138.6583,-242.9693 -138.6053,-241.0518 -138.5266,-239.1872 -138.4238,-237.3758 -138.2983,-235.618 -138.1518,-233.914 -140.3829,-232.0974 -140.3829,-232.0974 -143.0277,-230.9648 -144.4689,-231.8858 -145.9675,-232.8131 -147.524,-233.7452 -149.1389,-234.6806 -150.8126,-235.6178 -152.5454,-236.5553 -154.3378,-237.4916 -156.19,-238.4252 -158.1024,-239.3544 -160.0752,-240.2777 -162.1085,-241.1936 -164.2027,-242.1005 -166.3579,-242.9968 -168.5741,-243.881 -170.8516,-244.7513 -173.1902,-245.6063 -175.5902,-246.4443 -178.0514,-247.2638 -180.5738,-248.0631 -183.1573,-248.8406 -185.8019,-249.5947 -188.5073,-250.3237 -191.2735,-251.0262 -194.1001,-251.7004 -196.987,-252.3447 -199.9339,-252.9576 -202.9666,-250.5307 -203.0147,-247.5212 -203.019,-244.5633 -202.981,-241.6576 -202.9021,-238.8048 -202.7839,-236.0053 -202.628,-233.2597 -202.4359,-230.5686 -202.2091,-227.9323 -201.9492,-225.3513 -201.6578,-222.826 -201.3364,-220.3568 -200.9865,-217.944 -200.6098,-215.5878 -200.2078,-213.2886 -199.7822,-211.0465 -199.3344,-208.8618 -198.866,-206.7346 -198.3787,-204.665 -197.874,-202.6532 -197.3535,-200.6991 -196.8187,-198.8029 -196.2712,-196.9644 -195.7126,-195.1837 -195.1445,-193.4607 -194.5684,-191.7953 -193.9858,-190.1873 -195.6707,-187.8551 -195.6707,-187.8551 -197.9323,-186.0766 -199.5627,-186.5932 -201.2502,-187.101 -202.9949,-187.5985 -204.7969,-188.0841 -206.6561,-188.5562 -208.5726,-189.0133 -210.5462,-189.4538 -212.577,-189.8761 -214.6647,-190.2787 -216.8092,-190.66 -219.0103,-191.0184 -221.2679,-191.3524 -223.5816,-191.6603 -225.9511,-191.9407 -228.3762,-192.192 -230.8565,-192.4125 -233.3916,-192.6009 -235.981,-192.7554 -238.6243,-192.8746 -241.321,-192.9569 -244.0707,-193.0009 -246.8726,-193.0049 -249.7263,-192.9675 -252.6312,-192.8871 -255.5865,-192.7623 -258.5915,-192.5916 -260.8928,-189.4625 -260.1604,-186.5431 -259.399,-183.6848 -258.6102,-180.888 -257.7956,-178.1528 -256.9569,-175.4793 -256.0957,-172.8676 -255.2136,-170.3179 -254.3122,-167.8301 -253.3932,-165.4044 -252.4581,-163.0406 -251.5085,-160.7387 -250.5461,-158.4986 -249.5724,-156.3202 -248.5891,-154.2033 -247.5976,-152.1478 -246.5996,-150.1535 -245.5967,-148.22 -244.5903,-146.347 -243.5821,-144.5344 -242.5736,-142.7816 -241.5662,-141.0884 -240.5616,-139.4543 -239.5612,-137.8789 -238.5664,-136.3616 -237.5789,-134.902 -236.5999,-133.4996 -237.6239,-130.8108 -237.6239,-130.8108 -239.3481,-128.5075 -241.0566,-128.5845 -242.8181,-128.6383 -244.6321,-128.6673 -246.4984,-128.6699 -248.4164,-128.6447 -250.3859,-128.5902 -252.4063,-128.5049 -254.4771,-128.3872 -256.5979,-128.2358 -258.768,-128.049 -260.9869,-127.8255 -263.254,-127.5638 -265.5686,-127.2625 -267.9299,-126.92 -270.3374,-126.5351 -272.7903,-126.1062 -275.2877,-125.632 -277.8289,-125.111 -280.413,-124.542 -283.0392,-123.9236 -285.7065,-123.2544 -288.414,-122.533 -291.1608,-121.7583 -293.9458,-120.9289 -296.7681,-120.0434 -299.6266,-119.1008 -301.0396,-115.4827 -299.5765,-112.8523 -298.1013,-110.2885 -296.6155,-107.7912 -295.1208,-105.3599 -293.6187,-102.9946 -292.1109,-100.6948 -290.5989,-98.4603 -289.0844,-96.2906 -287.5688,-94.1854 -286.0538,-92.1441 -284.5408,-90.1664 -283.0314,-88.2518 -281.5271,-86.3996 -280.0294,-84.6094 -278.5397,-82.8805 -277.0595,-81.2124 -275.5903,-79.6044 -274.1335,-78.0557 -272.6905,-76.5658 -271.2627,-75.1338 -269.8514,-73.759 -268.4581,-72.4406 -267.084,-71.1778 -265.7305,-69.9697 -264.3988,-68.8154 -263.0902,-67.7142 -263.3833,-64.852 -263.3833,-64.852 -264.4527,-62.1809 -266.1229,-61.8131 -267.8383,-61.4091 -269.598,-60.9676 -271.4013,-60.4871 -273.2475,-59.9664 -275.1358,-59.404 -277.0653,-58.7987 -279.0351,-58.149 -281.0444,-57.4538 -283.0922,-56.7118 -285.1777,-55.9216 -287.2998,-55.0821 -289.4575,-54.1919 -291.6498,-53.25 -293.8756,-52.255 -296.1339,-51.2059 -298.4235,-50.1015 -300.7432,-48.9406 -303.092,-47.7221 -305.4686,-46.4451 -307.8718,-45.1083 -310.3004,-43.7108 -312.7531,-42.2515 -315.2286,-40.7295 -317.7255,-39.1438 -320.2426,-37.4935 -320.6711,-33.6329 -318.577,-31.4708 -316.4885,-29.3762 -314.407,-27.3485 -312.3339,-25.387 -310.2708,-23.491 -308.2192,-21.6599 -306.1804,-19.8928 -304.1559,-18.189 -302.1471,-16.5478 -300.1554,-14.9682 -298.1821,-13.4495 -296.2286,-11.9907 -294.2962,-10.591 -292.3861,-9.2495 -290.4997,-7.9651 -288.6383,-6.7369 -286.803,-5.5639 -284.995,-4.4451 -283.2155,-3.3794 -281.4657,-2.3657 -279.7467,-1.403 -278.0596,-0.4902 -276.4055,0.374 -274.7854,1.1906 -273.2004,1.9608 -271.6514,2.6859 -271.1937,5.5264 -271.1937,5.5264 -271.5353,8.3833 -273.0534,9.1708 -274.6058,10.005 -276.1912,10.8869 -277.8088,11.8178 -279.4573,12.7986 -281.1356,13.8305 -282.8427,14.9146 -284.5773,16.0519 -286.3382,17.2435 -288.1242,18.4903 -289.9341,19.7933 -291.7666,21.1535 -293.6204,22.5717 -295.4942,24.049 -297.3866,25.5861 -299.2964,27.184 -301.2221,28.8434 -303.1624,30.5651 -305.1158,32.3499 -307.0809,34.1986 -309.0562,36.1118 -311.0404,38.0903 -313.0318,40.1346 -315.029,42.2454 -317.0305,44.4234 -319.0346,46.669 -318.4493,50.5089 -315.867,52.0553 -313.3076,53.538 -310.7721,54.9579 -308.262,56.316 -305.7786,57.6134 -303.3229,58.8512 -300.8962,60.0303 -298.4997,61.1521 -296.1346,62.2175 -293.8019,63.2277 -291.5028,64.184 -289.2383,65.0874 -287.0094,65.9393 -284.8172,66.7408 -282.6627,67.4932 -280.5468,68.1977 -278.4704,68.8558 -276.4345,69.4685 -274.4398,70.0373 -272.4873,70.5636 -270.5777,71.0486 -268.7118,71.4937 -266.8904,71.9003 -265.1142,72.2697 -263.3838,72.6035 -261.6999,72.9029 -260.5226,75.5282 -260.5226,75.5282 -260.1132,78.3761 -261.3758,79.5298 -262.6593,80.7373 -263.9625,81.9995 -265.284,83.3173 -266.6225,84.6914 -267.9766,86.1225 -269.3449,87.6115 -270.726,89.159 -272.1185,90.7657 -273.521,92.4323 -274.9319,94.1593 -276.3499,95.9474 -277.7735,97.7972 -279.2011,99.7091 -280.6312,101.6836 -282.0624,103.7213 -283.493,105.8226 -284.9216,107.9878 -286.3465,110.2174 -287.7661,112.5117 -289.179,114.871 -290.5834,117.2955 -291.9779,119.7856 -293.3607,122.3415 -294.7303,124.9632 -296.085,127.651 -294.5257,131.2086 -291.6312,132.034 -288.7752,132.8037 -285.9587,133.519 -283.1826,134.1812 -280.448,134.7916 -277.7556,135.3516 -275.1064,135.8625 -272.5013,136.3258 -269.941,136.7428 -267.4263,137.1148 -264.958,137.4434 -262.5369,137.73 -260.1635,137.976 -257.8385,138.1828 -255.5627,138.3519 -253.3365,138.4848 -251.1606,138.583 -249.0354,138.6479 -246.9615,138.6811 -244.9393,138.6841 -242.9693,138.6583 -241.0518,138.6053 -239.1872,138.5266 -237.3758,138.4238 -235.618,138.2983 -233.914,138.1518 -232.0974,140.3829 -232.0974,140.3829 -230.9648,143.0277 -231.8858,144.4689 -232.8131,145.9675 -233.7452,147.524 -234.6806,149.1389 -235.6178,150.8126 -236.5553,152.5454 -237.4916,154.3378 -238.4252,156.19 -239.3544,158.1024 -240.2777,160.0752 -241.1936,162.1085 -242.1005,164.2027 -242.9968,166.3579 -243.881,168.5741 -244.7513,170.8516 -245.6063,173.1902 -246.4443,175.5902 -247.2638,178.0514 -248.0631,180.5738 -248.8406,183.1573 -249.5947,185.8019 -250.3237,188.5073 -251.0262,191.2735 -251.7004,194.1001 -252.3447,196.987 -252.9576,199.9339 -250.5307,202.9666 -247.5212,203.0147 -244.5633,203.019 -241.6576,202.981 -238.8048,202.9021 -236.0053,202.7839 -233.2597,202.628 -230.5686,202.4359 -227.9323,202.2091 -225.3513,201.9492 -222.826,201.6578 -220.3568,201.3364 -217.944,200.9865 -215.5878,200.6098 -213.2886,200.2078 -211.0465,199.7822 -208.8618,199.3344 -206.7346,198.866 -204.665,198.3787 -202.6532,197.874 -200.6991,197.3535 -198.8029,196.8187 -196.9644,196.2712 -195.1837,195.7126 -193.4607,195.1445 -191.7953,194.5684 -190.1873,193.9858 -187.8551,195.6707 -187.8551,195.6707 -186.0766,197.9323 -186.5932,199.5627 -187.101,201.2502 -187.5985,202.9949 -188.0841,204.7969 -188.5562,206.6561 -189.0133,208.5726 -189.4538,210.5462 -189.8761,212.577 -190.2787,214.6647 -190.66,216.8092 -191.0184,219.0103 -191.3524,221.2679 -191.6603,223.5816 -191.9407,225.9511 -192.192,228.3762 -192.4125,230.8565 -192.6009,233.3916 -192.7554,235.981 -192.8746,238.6243 -192.9569,241.321 -193.0009,244.0707 -193.0049,246.8726 -192.9675,249.7263 -192.8871,252.6312 -192.7623,255.5865 -192.5916,258.5915 -189.4625,260.8928 -186.5431,260.1604 -183.6848,259.399 -180.888,258.6102 -178.1528,257.7956 -175.4793,256.9569 -172.8676,256.0957 -170.3179,255.2136 -167.8301,254.3122 -165.4044,253.3932 -163.0406,252.4581 -160.7387,251.5085 -158.4986,250.5461 -156.3202,249.5724 -154.2033,248.5891 -152.1478,247.5976 -150.1535,246.5996 -148.22,245.5967 -146.347,244.5903 -144.5344,243.5821 -142.7816,242.5736 -141.0884,241.5662 -139.4543,240.5616 -137.8789,239.5612 -136.3616,238.5664 -134.902,237.5789 -133.4996,236.5999 -130.8108,237.6239 -130.8108,237.6239 -128.5075,239.3481 -128.5845,241.0566 -128.6383,242.8181 -128.6673,244.6321 -128.6699,246.4984 -128.6447,248.4164 -128.5902,250.3859 -128.5049,252.4063 -128.3872,254.4771 -128.2358,256.5979 -128.049,258.768 -127.8255,260.9869 -127.5638,263.254 -127.2625,265.5686 -126.92,267.9299 -126.5351,270.3374 -126.1062,272.7903 -125.632,275.2877 -125.111,277.8289 -124.542,280.413 -123.9236,283.0392 -123.2544,285.7065 -122.533,288.414 -121.7583,291.1608 -120.9289,293.9458 -120.0434,296.7681 -119.1008,299.6266 -115.4827,301.0396 -112.8523,299.5765 -110.2885,298.1013 -107.7912,296.6155 -105.3599,295.1208 -102.9946,293.6187 -100.6948,292.1109 -98.4603,290.5989 -96.2906,289.0844 -94.1854,287.5688 -92.1441,286.0538 -90.1664,284.5408 -88.2518,283.0314 -86.3996,281.5271 -84.6094,280.0294 -82.8805,278.5397 -81.2124,277.0595 -79.6044,275.5903 -78.0557,274.1335 -76.5658,272.6905 -75.1338,271.2627 -73.759,269.8514 -72.4406,268.4581 -71.1778,267.084 -69.9697,265.7305 -68.8154,264.3988 -67.7142,263.0902 -64.852,263.3833 -64.852,263.3833 -62.1809,264.4527 -61.8131,266.1229 -61.4091,267.8383 -60.9676,269.598 -60.4871,271.4013 -59.9664,273.2475 -59.404,275.1358 -58.7987,277.0653 -58.149,279.0351 -57.4538,281.0444 -56.7118,283.0922 -55.9216,285.1777 -55.0821,287.2998 -54.1919,289.4575 -53.25,291.6498 -52.255,293.8756 -51.2059,296.1339 -50.1015,298.4235 -48.9406,300.7432 -47.7221,303.092 -46.4451,305.4686 -45.1083,307.8718 -43.7108,310.3004 -42.2515,312.7531 -40.7295,315.2286 -39.1438,317.7255 -37.4935,320.2426 -33.6329,320.6711 -31.4708,318.577 -29.3762,316.4885 -27.3485,314.407 -25.387,312.3339 -23.491,310.2708 -21.6599,308.2192 -19.8928,306.1804 -18.189,304.1559 -16.5478,302.1471 -14.9682,300.1554 -13.4495,298.1821 -11.9907,296.2286 -10.591,294.2962 -9.2495,292.3861 -7.9651,290.4997 -6.7369,288.6383 -5.5639,286.803 -4.4451,284.995 -3.3794,283.2155 -2.3657,281.4657 -1.403,279.7467 -0.4902,278.0596 0.374,276.4055 1.1906,274.7854 1.9608,273.2004 2.6859,271.6514 5.5264,271.1937 5.5264,271.1937 8.3833,271.5353 9.1708,273.0534 10.005,274.6058 10.8869,276.1912 11.8178,277.8088 12.7986,279.4573 13.8305,281.1356 14.9146,282.8427 16.0519,284.5773 17.2435,286.3382 18.4903,288.1242 19.7933,289.9341 21.1535,291.7666 22.5717,293.6204 24.049,295.4942 25.5861,297.3866 27.184,299.2964 28.8434,301.2221 30.5651,303.1624 32.3499,305.1158 34.1986,307.0809 36.1118,309.0562 38.0903,311.0404 40.1346,313.0318 42.2454,315.029 44.4234,317.0305 46.669,319.0346 50.5089,318.4493 52.0553,315.867 53.538,313.3076 54.9579,310.7721 56.316,308.262 57.6134,305.7786 58.8512,303.3229 60.0303,300.8962 61.1521,298.4997 62.2175,296.1346 63.2277,293.8019 64.184,291.5028 65.0874,289.2383 65.9393,287.0094 66.7408,284.8172 67.4932,282.6627 68.1977,280.5468 68.8558,278.4704 69.4685,276.4345 70.0373,274.4398 70.5636,272.4873 71.0486,270.5777 71.4937,268.7118 71.9003,266.8904 72.2697,265.1142 72.6035,263.3838 72.9029,261.6999 75.5282,260.5226 75.5282,260.5226 78.3761,260.1132 79.5298,261.3758 80.7373,262.6593 81.9995,263.9625 83.3173,265.284 84.6914,266.6225 86.1225,267.9766 87.6115,269.3449 89.159,270.726 90.7657,272.1185 92.4323,273.521 94.1593,274.9319 95.9474,276.3499 97.7972,277.7735 99.7091,279.2011 101.6836,280.6312 103.7213,282.0624 105.8226,283.493 107.9878,284.9216 110.2174,286.3465 112.5117,287.7661 114.871,289.179 117.2955,290.5834 119.7856,291.9779 122.3415,293.3607 124.9632,294.7303 127.651,296.085 131.2086,294.5257 132.034,291.6312 132.8037,288.7752 133.519,285.9587 134.1812,283.1826 134.7916,280.448 135.3516,277.7556 135.8625,275.1064 136.3258,272.5013 136.7428,269.941 137.1148,267.4263 137.4434,264.958 137.73,262.5369 137.976,260.1635 138.1828,257.8385 138.3519,255.5627 138.4848,253.3365 138.583,251.1606 138.6479,249.0354 138.6811,246.9615 138.6841,244.9393 138.6583,242.9693 138.6053,241.0518 138.5266,239.1872 138.4238,237.3758 138.2983,235.618 138.1518,233.914 140.3829,232.0974 140.3829,232.0974 143.0277,230.9648 144.4689,231.8858 145.9675,232.8131 147.524,233.7452 149.1389,234.6806 150.8126,235.6178 152.5454,236.5553 154.3378,237.4916 156.19,238.4252 158.1024,239.3544 160.0752,240.2777 162.1085,241.1936 164.2027,242.1005 166.3579,242.9968 168.5741,243.881 170.8516,244.7513 173.1902,245.6063 175.5902,246.4443 178.0514,247.2638 180.5738,248.0631 183.1573,248.8406 185.8019,249.5947 188.5073,250.3237 191.2735,251.0262 194.1001,251.7004 196.987,252.3447 199.9339,252.9576 202.9666,250.5307 203.0147,247.5212 203.019,244.5633 202.981,241.6576 202.9021,238.8048 202.7839,236.0053 202.628,233.2597 202.4359,230.5686 202.2091,227.9323 201.9492,225.3513 201.6578,222.826 201.3364,220.3568 200.9865,217.944 200.6098,215.5878 200.2078,213.2886 199.7822,211.0465 199.3344,208.8618 198.866,206.7346 198.3787,204.665 197.874,202.6532 197.3535,200.6991 196.8187,198.8029 196.2712,196.9644 195.7126,195.1837 195.1445,193.4607 194.5684,191.7953 193.9858,190.1873 195.6707,187.8551 195.6707,187.8551 197.9323,186.0766 199.5627,186.5932 201.2502,187.101 202.9949,187.5985 204.7969,188.0841 206.6561,188.5562 208.5726,189.0133 210.5462,189.4538 212.577,189.8761 214.6647,190.2787 216.8092,190.66 219.0103,191.0184 221.2679,191.3524 223.5816,191.6603 225.9511,191.9407 228.3762,192.192 230.8565,192.4125 233.3916,192.6009 235.981,192.7554 238.6243,192.8746 241.321,192.9569 244.0707,193.0009 246.8726,193.0049 249.7263,192.9675 252.6312,192.8871 255.5865,192.7623 258.5915,192.5916 260.8928,189.4625 260.1604,186.5431 259.399,183.6848 258.6102,180.888 257.7956,178.1528 256.9569,175.4793 256.0957,172.8676 255.2136,170.3179 254.3122,167.8301 253.3932,165.4044 252.4581,163.0406 251.5085,160.7387 250.5461,158.4986 249.5724,156.3202 248.5891,154.2033 247.5976,152.1478 246.5996,150.1535 245.5967,148.22 244.5903,146.347 243.5821,144.5344 242.5736,142.7816 241.5662,141.0884 240.5616,139.4543 239.5612,137.8789 238.5664,136.3616 237.5789,134.902 236.5999,133.4996 237.6239,130.8108 237.6239,130.8108 239.3481,128.5075 241.0566,128.5845 242.8181,128.6383 244.6321,128.6673 246.4984,128.6699 248.4164,128.6447 250.3859,128.5902 252.4063,128.5049 254.4771,128.3872 256.5979,128.2358 258.768,128.049 260.9869,127.8255 263.254,127.5638 265.5686,127.2625 267.9299,126.92 270.3374,126.5351 272.7903,126.1062 275.2877,125.632 277.8289,125.111 280.413,124.542 283.0392,123.9236 285.7065,123.2544 288.414,122.533 291.1608,121.7583 293.9458,120.9289 296.7681,120.0434 299.6266,119.1008 301.0396,115.4827 299.5765,112.8523 298.1013,110.2885 296.6155,107.7912 295.1208,105.3599 293.6187,102.9946 292.1109,100.6948 290.5989,98.4603 289.0844,96.2906 287.5688,94.1854 286.0538,92.1441 284.5408,90.1664 283.0314,88.2518 281.5271,86.3996 280.0294,84.6094 278.5397,82.8805 277.0595,81.2124 275.5903,79.6044 274.1335,78.0557 272.6905,76.5658 271.2627,75.1338 269.8514,73.759 268.4581,72.4406 267.084,71.1778 265.7305,69.9697 264.3988,68.8154 263.0902,67.7142 263.3833,64.852 263.3833,64.852 264.4527,62.1809 266.1229,61.8131 267.8383,61.4091 269.598,60.9676 271.4013,60.4871 273.2475,59.9664 275.1358,59.404 277.0653,58.7987 279.0351,58.149 281.0444,57.4538 283.0922,56.7118 285.1777,55.9216 287.2998,55.0821 289.4575,54.1919 291.6498,53.25 293.8756,52.255 296.1339,51.2059 298.4235,50.1015 300.7432,48.9406 303.092,47.7221 305.4686,46.4451 307.8718,45.1083 310.3004,43.7108 312.7531,42.2515 315.2286,40.7295 317.7255,39.1438 320.2426,37.4935 320.6711,33.6329 318.577,31.4708 316.4885,29.3762 314.407,27.3485 312.3339,25.387 310.2708,23.491 308.2192,21.6599 306.1804,19.8928 304.1559,18.189 302.1471,16.5478 300.1554,14.9682 298.1821,13.4495 296.2286,11.9907 294.2962,10.591 292.3861,9.2495 290.4997,7.9651 288.6383,6.7369 286.803,5.5639 284.995,4.4451 283.2155,3.3794 281.4657,2.3657 279.7467,1.403 278.0596,0.4902 276.4055,-0.374 274.7854,-1.1906 273.2004,-1.9608 271.6514,-2.6859 271.1937,-5.5264 "/><g class="guides"><polyline fill="none" stroke="#444" stroke-width="0.5" stroke-miterlimit="10" points="10,0 -10,0"/><polyline fill="none" stroke="#444" stroke-width="0.5" stroke-miterlimit="10" points="0,10 0,-10"/></g><circle fill="#c00" class="firstmarker" stroke="none" stroke-miterlimit="10" cx="296.5739" cy="-45.2096" r="9.8125"/><g class="geartext"><g class="text"><polyline fill="none" stroke="#444" stroke-width="0.5" stroke-linecap="square" stroke-miterlimit="1"  points="152.01 -187.33 149.67 -189.21 147.31 -191.06 144.92 -192.87 142.51 -194.66 "/><polyline fill="none" stroke="#444" stroke-width="0.5" stroke-linecap="square" stroke-miterlimit="1"  points="143.64 -186.31 150.97 -195.81 "/><polyline fill="none" stroke="#444" stroke-width="0.5" stroke-linecap="square" stroke-miterlimit="1"  points="155.79 -191.99 151.53 -191.56 147.31 -191.06 143.12 -190.48 138.96 -189.82 "/><polyline fill="none" stroke="#444" stroke-width="0.5" stroke-linecap="square" stroke-miterlimit="1"  points="148.23 -182.68 147.81 -186.86 147.31 -191.06 146.72 -195.27 146.05 -199.5 "/><polyline fill="none" stroke="#444" stroke-width="0.5" stroke-linecap="square" stroke-miterlimit="1"  points="159.29 -173.11 155.13 -172.85 152.96 -174.76 152.73 -178.93 160.52 -188.06 164.82 -188.31 167.15 -186.24 167.42 -181.94 159.29 -173.11 "/><polyline fill="none" stroke="#444" stroke-width="0.5" stroke-linecap="square" stroke-miterlimit="1"  points="192.98 -159.32 179.1 -147.86 180.68 -152.99 182.16 -158.17 183.54 -163.42 184.82 -168.72 171.53 -156.59 "/><polyline fill="none" stroke="#444" stroke-width="0.5" stroke-linecap="square" stroke-miterlimit="1"  points="199.42 -141.03 197.65 -143.5 195.85 -145.95 194.02 -148.37 192.16 -150.77 "/><polyline fill="none" stroke="#444" stroke-width="0.5" stroke-linecap="square" stroke-miterlimit="1"  points="194.52 -137.57 192.8 -139.97 191.04 -142.36 189.26 -144.73 187.44 -147.07 "/><polyline fill="none" stroke="#444" stroke-width="0.5" stroke-linecap="square" stroke-miterlimit="1"  points="199.09 -119.59 197.59 -122.06 196.06 -124.51 194.49 -126.94 192.9 -129.34 197.88 -132.69 202.03 -131.86 203.65 -129.33 205.25 -126.79 209.38 -125.77 211.95 -127.32 212.9 -131.52 211.25 -134.16 209.57 -136.77 205.36 -137.7 "/><polyline fill="none" stroke="#444" stroke-width="0.5" stroke-linecap="square" stroke-miterlimit="1"  points="212.81 -107.12 211.46 -109.76 210.08 -112.38 208.67 -114.98 207.22 -117.57 212.17 -116.91 217.14 -116.15 222.11 -115.28 206.14 -106.99 "/><polyline fill="none" stroke="#444" stroke-width="0.5" stroke-linecap="square" stroke-miterlimit="1"  points="224.11 -89.32 225.2 -86.53 226.26 -83.72 227.28 -80.9 231.11 -79.04 233.95 -80.01 235.76 -83.92 234.7 -86.84 233.6 -89.76 232.47 -92.65 215.74 -85.99 "/><polyline fill="none" stroke="#444" stroke-width="0.5" stroke-linecap="square" stroke-miterlimit="1"  points="221.55 -69.67 233 -73.27 "/><polyline fill="none" stroke="#444" stroke-width="0.5" stroke-linecap="square" stroke-miterlimit="1"  points="235.86 -74.17 238.73 -75.07 "/><polyline fill="none" stroke="#444" stroke-width="0.5" stroke-linecap="square" stroke-miterlimit="1"  points="229.05 -53.64 225.46 -55.77 227.65 -59.32 242.16 -63.11 "/><polyline fill="none" stroke="#444" stroke-width="0.5" stroke-linecap="square" stroke-miterlimit="1"  points="237.82 -55.7 237.1 -58.65 236.36 -61.59 235.57 -64.53 234.75 -67.45 "/><polyline fill="none" stroke="#444" stroke-width="0.5" stroke-linecap="square" stroke-miterlimit="1"  points="229.45 -35.96 228.99 -38.81 228.48 -41.65 227.95 -44.49 230.32 -47.93 236.19 -49.15 239.73 -46.79 240.29 -43.8 240.82 -40.81 241.31 -37.81 "/><polyline fill="none" stroke="#444" stroke-width="0.5" stroke-linecap="square" stroke-miterlimit="1"  points="236.22 -31.02 239.57 -28.43 242.89 -25.77 243.19 -22.75 240.46 -19.48 231.49 -18.75 "/><polyline fill="none" stroke="#444" stroke-width="0.5" stroke-linecap="square" stroke-miterlimit="1"  points="230.27 -30.24 248.12 -32.58 "/><polyline fill="none" stroke="#444" stroke-width="0.5" stroke-linecap="square" stroke-miterlimit="1"  points="232.25 1.44 232.21 4.33 232.14 7.22 232.03 10.11 234.88 13.16 246.86 13.83 250.01 10.89 250.13 7.78 250.21 4.67 250.25 1.56 "/><polyline fill="none" stroke="#444" stroke-width="0.5" stroke-linecap="square" stroke-miterlimit="1"  points="250.21 4.67 232.21 4.33 "/><polyline fill="none" stroke="#444" stroke-width="0.5" stroke-linecap="square" stroke-miterlimit="1"  points="242.17 31.8 242.55 28.79 242.89 25.77 243.19 22.75 243.45 19.72 "/><polyline fill="none" stroke="#444" stroke-width="0.5" stroke-linecap="square" stroke-miterlimit="1"  points="236.22 31.02 236.59 28.08 236.92 25.14 237.21 22.19 237.47 19.24 "/><polyline fill="none" stroke="#444" stroke-width="0.5" stroke-linecap="square" stroke-miterlimit="1"  points="238.34 37.35 237.86 40.31 237.34 43.26 236.78 46.21 233.25 48.54 230.32 47.93 227.95 44.49 228.48 41.65 228.99 38.81 232.41 36.42 241.31 37.81 243.77 41.31 246.19 44.88 245.62 47.94 "/><polyline fill="none" stroke="#444" stroke-width="0.5" stroke-linecap="square" stroke-miterlimit="1"  points="231.02 69.5 230.14 72.37 229.22 75.22 228.27 78.07 230.11 81.91 232.93 82.91 236.78 80.98 237.77 78.03 238.73 75.07 239.64 72.09 222.4 66.91 "/><polyline fill="none" stroke="#444" stroke-width="0.5" stroke-linecap="square" stroke-miterlimit="1"  points="223.36 98.83 224.57 96.05 225.75 93.25 226.89 90.43 228 87.6 "/><polyline fill="none" stroke="#444" stroke-width="0.5" stroke-linecap="square" stroke-miterlimit="1"  points="217.87 96.4 219.06 93.69 220.2 90.96 221.32 88.21 222.4 85.45 "/><polyline fill="none" stroke="#444" stroke-width="0.5" stroke-linecap="square" stroke-miterlimit="1"  points="210.08 112.38 211.46 109.76 212.81 107.12 214.13 104.46 215.41 101.79 217.72 106.22 219.96 110.71 222.11 115.28 206.14 106.99 "/><polyline fill="none" stroke="#444" stroke-width="0.5" stroke-linecap="square" stroke-miterlimit="1"  points="202.03 131.86 200.37 134.36 198.69 136.84 196.97 139.3 197.65 143.5 200.08 145.26 204.32 144.5 206.1 141.94 207.85 139.37 209.57 136.77 194.49 126.94 "/><polyline fill="none" stroke="#444" stroke-width="0.5" stroke-linecap="square" stroke-miterlimit="1"  points="184.49 141.08 189.26 144.73 192.16 150.77 194.95 156.91 188.35 155.5 181.83 153.96 177.25 150.08 "/><polyline fill="none" stroke="#444" stroke-width="0.5" stroke-linecap="square" stroke-miterlimit="1"  points="189.26 144.73 187.44 147.07 185.6 149.39 183.73 151.68 181.83 153.96 "/><polyline fill="none" stroke="#444" stroke-width="0.5" stroke-linecap="square" stroke-miterlimit="1"  points="174.12 171.29 176.24 169.11 178.33 166.91 180.39 164.68 182.42 162.42 "/><polyline fill="none" stroke="#444" stroke-width="0.5" stroke-linecap="square" stroke-miterlimit="1"  points="169.84 167.08 171.91 164.96 173.95 162.81 175.96 160.63 177.94 158.43 "/><polyline fill="none" stroke="#444" stroke-width="0.5" stroke-linecap="square" stroke-miterlimit="1"  points="171.89 177.72 171.73 182.03 169.45 184.15 167.15 186.24 162.84 186.05 160.87 183.79 161.14 179.54 156.92 179.28 154.94 177.02 155.13 172.85 157.26 170.9 159.38 168.94 163.55 169.1 "/><polyline fill="none" stroke="#444" stroke-width="0.5" stroke-linecap="square" stroke-miterlimit="1"  points="163.36 177.53 161.14 179.54 "/><polyline fill="none" stroke="#444" stroke-width="0.5" stroke-linecap="square" stroke-miterlimit="1"  points="150.32 200.07 152.8 198.18 155.25 196.27 157.68 194.32 160.09 192.35 156.25 187.74 153.9 189.66 151.53 191.56 149.14 193.43 144.92 192.87 141.31 188.08 141.81 183.93 144.09 182.15 146.34 180.35 150.49 180.82 "/></g></g><g class="guides gearguides" opacity="0.2"><circle class="pitch" fill="none" stroke="#f00" stroke-miterlimit="10" cx="0" cy="0" r="300"/><circle class="outer" fill="none" stroke="#ccc" stroke-miterlimit="10" stroke-dasharray="2,2" cx="0" cy="0" r="325"/><circle class="base" fill="none" stroke="#00f" stroke-miterlimit="10" stroke-dasharray="2,2" cx="0" cy="0" r="245.75"/></g></svg>